<svg width="310" height="184" viewBox="0 0 310 185" fill="none" xmlns="http://www.w3.org/2000/svg">
<mask id="mask0_6_430" style="mask-type:alpha" maskUnits="userSpaceOnUse" x="0" y="0" width="310" height="185">
<rect width="310" height="184.595" rx="16" fill="#141F33"/>
</mask>
<g mask="url(#mask0_6_430)">
<path d="M0 16C0 7.16344 7.16344 0 16 0H294C302.837 0 310 7.16344 310 16V184H0V16Z" fill="#004573"/>
<rect x="155" y="136" width="78" height="48" fill="#99B5C7"/>
<rect x="233" y="136" width="77" height="48" fill="#CCDAE3"/>
<rect y="136" width="78" height="48" fill="#336A8F"/>
<rect x="78" y="136" width="77" height="48" fill="#668FAB"/>
<path d="M25.0158 24.4518H26.7798V37.0518H25.0158L18.3558 27.6378V37.0518H16.5918V24.4518H18.3558L25.0158 33.8838V24.4518ZM28.1693 32.5518C28.1453 31.3038 28.6013 30.2118 29.5373 29.2758C30.4733 28.3398 31.5653 27.8838 32.8133 27.9078C34.0613 27.8838 35.1473 28.3398 36.0713 29.2758C37.0073 30.2118 37.4633 31.3038 37.4393 32.5518V37.0518H35.6753V35.6298C35.4593 36.0738 35.0813 36.4458 34.5413 36.7458C34.0013 37.0458 33.4253 37.1958 32.8133 37.1958C31.5653 37.2198 30.4733 36.7638 29.5373 35.8278C28.6013 34.8918 28.1453 33.7998 28.1693 32.5518ZM35.6933 32.5518C35.6933 31.7238 35.4173 31.0278 34.8653 30.4638C34.3253 29.8998 33.6473 29.6178 32.8313 29.6178C32.0153 29.6178 31.3253 29.9058 30.7613 30.4818C30.2093 31.0458 29.9333 31.7358 29.9333 32.5518C29.9333 33.3678 30.2153 34.0638 30.7793 34.6398C31.3433 35.2038 32.0273 35.4858 32.8313 35.4858C33.6353 35.4858 34.3133 35.2038 34.8653 34.6398C35.4173 34.0638 35.6933 33.3678 35.6933 32.5518ZM41.458 37.0518L37.84 28.0518H39.694L42.34 34.7658L45.004 28.0518H46.858L43.222 37.0518H41.458ZM47.9236 37.8618H49.9036C50.3356 38.5818 50.9536 38.9418 51.7576 38.9418C52.4296 38.9418 52.9576 38.7438 53.3416 38.3478C53.7376 37.9638 53.9356 37.4538 53.9356 36.8178V36.3318C53.4196 36.9078 52.6936 37.1958 51.7576 37.1958C50.5336 37.1958 49.5676 36.8238 48.8596 36.0798C48.1516 35.3238 47.7976 34.2258 47.7976 32.7858V28.0518H49.5616V32.7858C49.5616 34.5858 50.2936 35.4858 51.7576 35.4858C53.2216 35.4858 53.9536 34.6218 53.9536 32.8938V28.0518H55.7176V36.6018C55.7176 37.7538 55.3396 38.7138 54.5836 39.4818C53.8276 40.2618 52.8856 40.6518 51.7576 40.6518C50.8696 40.6518 50.0896 40.3998 49.4176 39.8958C48.7456 39.4038 48.2476 38.7258 47.9236 37.8618Z" fill="white"/>
<path d="M36.2118 101.952H32.1438L30.9918 107.352H35.0598L34.6278 109.404H30.5958L29.2998 115.596H26.9958L28.2918 109.404H23.3958L22.0998 115.596H19.7958L21.0918 109.404H16.9518L17.4198 107.352H21.4878L22.6398 101.952H18.5358L19.0398 99.9004H23.0718L24.3318 93.7084H26.6358L25.3758 99.9004H30.2718L31.5318 93.7084H33.8358L32.5758 99.9004H36.6798L36.2118 101.952ZM28.6878 107.352L29.8398 101.952H24.9438L23.7918 107.352H28.6878ZM55.3914 95.3644C57.1674 97.7644 58.0554 100.86 58.0554 104.652C58.0554 108.444 57.1674 111.552 55.3914 113.976C53.6394 116.376 51.3354 117.576 48.4794 117.576C45.5994 117.576 43.2714 116.376 41.4954 113.976C39.7434 111.552 38.8674 108.444 38.8674 104.652C38.8674 100.86 39.7434 97.7644 41.4954 95.3644C43.2714 92.9404 45.5994 91.7284 48.4794 91.7284C51.3354 91.7284 53.6394 92.9404 55.3914 95.3644ZM43.1874 96.9124C41.8434 98.8804 41.1714 101.46 41.1714 104.652C41.1714 107.844 41.8434 110.436 43.1874 112.428C44.5554 114.396 46.3194 115.38 48.4794 115.38C50.6154 115.38 52.3554 114.384 53.6994 112.392C55.0674 110.4 55.7514 107.82 55.7514 104.652C55.7514 101.484 55.0674 98.9044 53.6994 96.9124C52.3554 94.9204 50.6154 93.9244 48.4794 93.9244C46.3194 93.9244 44.5554 94.9204 43.1874 96.9124ZM76.7797 95.3644C78.5557 97.7644 79.4437 100.86 79.4437 104.652C79.4437 108.444 78.5557 111.552 76.7797 113.976C75.0277 116.376 72.7237 117.576 69.8677 117.576C66.9877 117.576 64.6597 116.376 62.8837 113.976C61.1317 111.552 60.2557 108.444 60.2557 104.652C60.2557 100.86 61.1317 97.7644 62.8837 95.3644C64.6597 92.9404 66.9877 91.7284 69.8677 91.7284C72.7237 91.7284 75.0277 92.9404 76.7797 95.3644ZM64.5757 96.9124C63.2317 98.8804 62.5597 101.46 62.5597 104.652C62.5597 107.844 63.2317 110.436 64.5757 112.428C65.9437 114.396 67.7077 115.38 69.8677 115.38C72.0037 115.38 73.7437 114.384 75.0877 112.392C76.4557 110.4 77.1397 107.82 77.1397 104.652C77.1397 101.484 76.4557 98.9044 75.0877 96.9124C73.7437 94.9204 72.0037 93.9244 69.8677 93.9244C67.7077 93.9244 65.9437 94.9204 64.5757 96.9124ZM98.9959 108.468V110.592H95.8279V117.252H93.5239V110.592H81.4639V108.468L93.5239 92.0524H95.8279V108.468H98.9959ZM84.1639 108.468H93.5239V95.8684L84.1639 108.468ZM100.853 108.252H103.157C103.157 110.244 103.829 111.924 105.173 113.292C106.541 114.66 108.209 115.344 110.177 115.344C112.121 115.344 113.765 114.672 115.109 113.328C116.453 111.984 117.125 110.316 117.125 108.324C117.125 106.308 116.453 104.628 115.109 103.284C113.789 101.94 112.121 101.268 110.105 101.268C108.425 101.268 106.973 101.772 105.749 102.78L103.913 101.808L106.577 92.0524H117.665V94.2484H108.233L106.721 99.9364C107.681 99.3604 108.797 99.0724 110.069 99.0724C112.661 99.0244 114.881 99.9124 116.729 101.736C118.577 103.56 119.477 105.756 119.429 108.324C119.429 110.94 118.529 113.136 116.729 114.912C114.953 116.664 112.757 117.54 110.141 117.54C107.525 117.54 105.317 116.652 103.517 114.876C101.741 113.076 100.853 110.868 100.853 108.252ZM121.175 92.0524H137.123V94.1404L125.675 117.252H123.227L134.711 94.1404H121.175V92.0524ZM137.791 110.016H140.095C140.095 111.528 140.635 112.788 141.715 113.796C142.795 114.804 144.103 115.308 145.639 115.308C147.247 115.308 148.579 114.78 149.635 113.724C150.667 112.692 151.183 111.348 151.183 109.692C151.183 108.084 150.619 106.74 149.491 105.66C148.363 104.556 146.971 104.004 145.315 104.004H144.739L144.703 102.024H145.243C146.443 102.024 147.463 101.64 148.303 100.872C149.143 100.08 149.563 99.0964 149.563 97.9204C149.563 96.7684 149.203 95.8204 148.483 95.0764C147.763 94.3084 146.827 93.9244 145.675 93.9244C144.523 93.9244 143.575 94.2964 142.831 95.0404C142.087 95.7604 141.715 96.6604 141.715 97.7404H139.411C139.411 96.0364 140.011 94.6204 141.211 93.4924C142.411 92.3404 143.887 91.7644 145.639 91.7644C147.391 91.7644 148.867 92.3164 150.067 93.4204C151.267 94.5244 151.867 95.9284 151.867 97.6324C151.867 100.128 150.763 101.904 148.555 102.96C150.067 103.488 151.267 104.376 152.155 105.624C153.043 106.848 153.487 108.288 153.487 109.944C153.487 112.08 152.731 113.88 151.219 115.344C149.707 116.784 147.859 117.504 145.675 117.504C143.491 117.504 141.631 116.784 140.095 115.344C138.559 113.904 137.791 112.128 137.791 110.016Z" fill="white"/>
<path d="M14.2079 148.891H13.1519L12.8439 150.321H13.8999L13.7019 151.289H12.6569L12.3049 152.95H11.2269L11.5789 151.289H10.4569L10.1049 152.95H9.02688L9.37888 151.289H8.30088L8.50988 150.321H9.56588L9.87388 148.891H8.80688L9.02688 147.923H10.0719L10.4129 146.262H11.4909L11.1499 147.923H12.2719L12.6129 146.262H13.6909L13.3499 147.923H14.4169L14.2079 148.891ZM11.7659 150.321L12.0739 148.891H10.9519L10.6439 150.321H11.7659ZM15.4948 151.245H16.5728C16.5728 151.605 16.7121 151.902 16.9908 152.136C17.2841 152.371 17.6214 152.488 18.0028 152.488C18.4428 152.488 18.7911 152.36 19.0478 152.103C19.3118 151.839 19.4438 151.487 19.4438 151.047C19.4438 150.593 19.2934 150.23 18.9928 149.958C18.6921 149.687 18.2998 149.551 17.8158 149.551H17.5518L17.5408 148.66H17.7718C18.1018 148.66 18.3804 148.569 18.6078 148.385C18.8351 148.195 18.9488 147.949 18.9488 147.648C18.9488 147.362 18.8644 147.131 18.6958 146.955C18.5271 146.772 18.3034 146.68 18.0248 146.68C17.7388 146.68 17.5078 146.765 17.3318 146.933C17.1558 147.102 17.0678 147.304 17.0678 147.538H15.9898C15.9898 147.01 16.1878 146.567 16.5838 146.207C16.9798 145.848 17.4528 145.668 18.0028 145.668C18.5674 145.668 19.0441 145.837 19.4328 146.174C19.8288 146.504 20.0268 146.93 20.0268 147.45C20.0268 148.169 19.7004 148.715 19.0478 149.089C20.0304 149.427 20.5218 150.127 20.5218 151.19C20.5218 151.858 20.2798 152.415 19.7958 152.862C19.3118 153.31 18.7214 153.533 18.0248 153.533C17.3354 153.533 16.7414 153.317 16.2428 152.884C15.7441 152.444 15.4948 151.898 15.4948 151.245ZM21.5196 151.245H22.5976C22.5976 151.605 22.7369 151.902 23.0156 152.136C23.3089 152.371 23.6462 152.488 24.0276 152.488C24.4676 152.488 24.8159 152.36 25.0726 152.103C25.3366 151.839 25.4686 151.487 25.4686 151.047C25.4686 150.593 25.3182 150.23 25.0176 149.958C24.7169 149.687 24.3246 149.551 23.8406 149.551H23.5766L23.5656 148.66H23.7966C24.1266 148.66 24.4052 148.569 24.6326 148.385C24.8599 148.195 24.9736 147.949 24.9736 147.648C24.9736 147.362 24.8892 147.131 24.7206 146.955C24.5519 146.772 24.3282 146.68 24.0496 146.68C23.7636 146.68 23.5326 146.765 23.3566 146.933C23.1806 147.102 23.0926 147.304 23.0926 147.538H22.0146C22.0146 147.01 22.2126 146.567 22.6086 146.207C23.0046 145.848 23.4776 145.668 24.0276 145.668C24.5922 145.668 25.0689 145.837 25.4576 146.174C25.8536 146.504 26.0516 146.93 26.0516 147.45C26.0516 148.169 25.7252 148.715 25.0726 149.089C26.0552 149.427 26.5466 150.127 26.5466 151.19C26.5466 151.858 26.3046 152.415 25.8206 152.862C25.3366 153.31 24.7462 153.533 24.0496 153.533C23.3602 153.533 22.7662 153.317 22.2676 152.884C21.7689 152.444 21.5196 151.898 21.5196 151.245ZM27.6214 150.706C27.6214 149.973 27.8267 149.247 28.2374 148.528C28.6627 147.802 29.1944 147.19 29.8324 146.691C30.4777 146.193 31.1377 145.881 31.8124 145.756V146.768C31.4091 146.878 31.0094 147.062 30.6134 147.318C30.2247 147.575 29.9094 147.865 29.6674 148.187C29.9461 148.011 30.2614 147.923 30.6134 147.923C31.3614 147.909 31.9994 148.187 32.5274 148.759C33.0554 149.324 33.3121 149.973 33.2974 150.706C33.3121 151.469 33.0334 152.136 32.4614 152.708C31.8894 153.28 31.2221 153.559 30.4594 153.544C29.6894 153.559 29.0184 153.288 28.4464 152.73C27.8817 152.166 27.6067 151.491 27.6214 150.706ZM31.7024 151.982C32.0471 151.63 32.2194 151.205 32.2194 150.706C32.2194 150.208 32.0507 149.786 31.7134 149.441C31.3761 149.089 30.9617 148.913 30.4704 148.913C29.9791 148.913 29.5611 149.089 29.2164 149.441C28.8717 149.786 28.6994 150.208 28.6994 150.706C28.6994 151.205 28.8717 151.63 29.2164 151.982C29.5611 152.327 29.9791 152.499 30.4704 152.499C30.9544 152.499 31.3651 152.327 31.7024 151.982ZM40.0839 153.456L39.3689 151.586H36.0029L35.2879 153.456H34.1769L37.1469 145.756H38.2249L41.1949 153.456H40.0839ZM36.3659 150.585H39.0059L37.6859 147.197L36.3659 150.585ZM42.0665 151.157C42.0665 150.739 42.1655 150.358 42.3635 150.013C42.5688 149.661 42.8475 149.383 43.1995 149.177C42.6715 148.789 42.4075 148.275 42.4075 147.637C42.4075 147.087 42.6128 146.622 43.0235 146.24C43.4415 145.859 43.9695 145.668 44.6075 145.668C45.2455 145.668 45.7698 145.859 46.1805 146.24C46.5912 146.622 46.7965 147.087 46.7965 147.637C46.7965 148.275 46.5362 148.785 46.0155 149.166C46.3675 149.372 46.6425 149.65 46.8405 150.002C47.0458 150.354 47.1485 150.739 47.1485 151.157C47.1485 151.825 46.9028 152.389 46.4115 152.851C45.9275 153.313 45.3262 153.544 44.6075 153.544C43.8888 153.544 43.2838 153.313 42.7925 152.851C42.3085 152.389 42.0665 151.825 42.0665 151.157ZM45.6855 147.67C45.6855 147.384 45.5865 147.153 45.3885 146.977C45.1978 146.801 44.9375 146.713 44.6075 146.713C44.2775 146.713 44.0135 146.801 43.8155 146.977C43.6248 147.153 43.5295 147.384 43.5295 147.67C43.5295 147.964 43.6248 148.198 43.8155 148.374C44.0135 148.55 44.2775 148.638 44.6075 148.638C44.9375 148.638 45.1978 148.55 45.3885 148.374C45.5865 148.198 45.6855 147.964 45.6855 147.67ZM46.0265 151.124C46.0265 150.721 45.8908 150.391 45.6195 150.134C45.3555 149.87 45.0145 149.738 44.5965 149.738C44.1858 149.738 43.8448 149.87 43.5735 150.134C43.3095 150.391 43.1775 150.721 43.1775 151.124C43.1775 151.52 43.3095 151.85 43.5735 152.114C43.8448 152.371 44.1858 152.499 44.5965 152.499C45.0145 152.499 45.3555 152.371 45.6195 152.114C45.8908 151.85 46.0265 151.52 46.0265 151.124ZM52.8824 146.801H49.4284V148.902H52.4644V149.947H49.4284V153.456H48.3504V145.756H52.8824V146.801Z" fill="white"/>
<path d="M91.4571 147.891H90.4011L90.0931 149.321H91.1491L90.9511 150.289H89.9061L89.5541 151.95H88.4761L88.8281 150.289H87.7061L87.3541 151.95H86.2761L86.6281 150.289H85.5501L85.7591 149.321H86.8151L87.1231 147.891H86.0561L86.2761 146.923H87.3211L87.6621 145.262H88.7401L88.3991 146.923H89.5211L89.8621 145.262H90.9401L90.5991 146.923H91.6661L91.4571 147.891ZM89.0151 149.321L89.3231 147.891H88.2011L87.8931 149.321H89.0151ZM92.821 149.706C92.821 148.973 93.0263 148.247 93.437 147.528C93.8623 146.802 94.394 146.19 95.032 145.691C95.6773 145.193 96.3373 144.881 97.012 144.756V145.768C96.6087 145.878 96.209 146.062 95.813 146.318C95.4243 146.575 95.109 146.865 94.867 147.187C95.1457 147.011 95.461 146.923 95.813 146.923C96.561 146.909 97.199 147.187 97.727 147.759C98.255 148.324 98.5117 148.973 98.497 149.706C98.5117 150.469 98.233 151.136 97.661 151.708C97.089 152.28 96.4217 152.559 95.659 152.544C94.889 152.559 94.218 152.288 93.646 151.73C93.0813 151.166 92.8063 150.491 92.821 149.706ZM96.902 150.982C97.2467 150.63 97.419 150.205 97.419 149.706C97.419 149.208 97.2503 148.786 96.913 148.441C96.5757 148.089 96.1613 147.913 95.67 147.913C95.1787 147.913 94.7607 148.089 94.416 148.441C94.0713 148.786 93.899 149.208 93.899 149.706C93.899 150.205 94.0713 150.63 94.416 150.982C94.7607 151.327 95.1787 151.499 95.67 151.499C96.154 151.499 96.5647 151.327 96.902 150.982ZM99.6515 149.706C99.6515 148.973 99.8568 148.247 100.267 147.528C100.693 146.802 101.224 146.19 101.862 145.691C102.508 145.193 103.168 144.881 103.842 144.756V145.768C103.439 145.878 103.039 146.062 102.643 146.318C102.255 146.575 101.939 146.865 101.697 147.187C101.976 147.011 102.291 146.923 102.643 146.923C103.391 146.909 104.029 147.187 104.557 147.759C105.085 148.324 105.342 148.973 105.327 149.706C105.342 150.469 105.063 151.136 104.491 151.708C103.919 152.28 103.252 152.559 102.489 152.544C101.719 152.559 101.048 152.288 100.476 151.73C99.9118 151.166 99.6368 150.491 99.6515 149.706ZM103.732 150.982C104.077 150.63 104.249 150.205 104.249 149.706C104.249 149.208 104.081 148.786 103.743 148.441C103.406 148.089 102.992 147.913 102.5 147.913C102.009 147.913 101.591 148.089 101.246 148.441C100.902 148.786 100.729 149.208 100.729 149.706C100.729 150.205 100.902 150.63 101.246 150.982C101.591 151.327 102.009 151.499 102.5 151.499C102.984 151.499 103.395 151.327 103.732 150.982ZM106.482 150.157C106.482 149.739 106.581 149.358 106.779 149.013C106.984 148.661 107.263 148.383 107.615 148.177C107.087 147.789 106.823 147.275 106.823 146.637C106.823 146.087 107.028 145.622 107.439 145.24C107.857 144.859 108.385 144.668 109.023 144.668C109.661 144.668 110.185 144.859 110.596 145.24C111.007 145.622 111.212 146.087 111.212 146.637C111.212 147.275 110.952 147.785 110.431 148.166C110.783 148.372 111.058 148.65 111.256 149.002C111.461 149.354 111.564 149.739 111.564 150.157C111.564 150.825 111.318 151.389 110.827 151.851C110.343 152.313 109.742 152.544 109.023 152.544C108.304 152.544 107.699 152.313 107.208 151.851C106.724 151.389 106.482 150.825 106.482 150.157ZM110.101 146.67C110.101 146.384 110.002 146.153 109.804 145.977C109.613 145.801 109.353 145.713 109.023 145.713C108.693 145.713 108.429 145.801 108.231 145.977C108.04 146.153 107.945 146.384 107.945 146.67C107.945 146.964 108.04 147.198 108.231 147.374C108.429 147.55 108.693 147.638 109.023 147.638C109.353 147.638 109.613 147.55 109.804 147.374C110.002 147.198 110.101 146.964 110.101 146.67ZM110.442 150.124C110.442 149.721 110.306 149.391 110.035 149.134C109.771 148.87 109.43 148.738 109.012 148.738C108.601 148.738 108.26 148.87 107.989 149.134C107.725 149.391 107.593 149.721 107.593 150.124C107.593 150.52 107.725 150.85 107.989 151.114C108.26 151.371 108.601 151.499 109.012 151.499C109.43 151.499 109.771 151.371 110.035 151.114C110.306 150.85 110.442 150.52 110.442 150.124ZM117.298 145.801H113.844V147.902H116.88V148.947H113.844V152.456H112.766V144.756H117.298V145.801ZM122.982 152.456L122.267 150.586H118.901L118.186 152.456H117.075L120.045 144.756H121.123L124.093 152.456H122.982ZM119.264 149.585H121.904L120.584 146.197L119.264 149.585ZM129.992 150.234C129.992 150.88 129.779 151.411 129.354 151.829C128.936 152.247 128.411 152.456 127.781 152.456H125.02V144.756H127.264C127.931 144.756 128.452 144.918 128.826 145.24C129.207 145.563 129.398 146.01 129.398 146.582C129.398 147.338 129.126 147.895 128.584 148.254C129.522 148.621 129.992 149.281 129.992 150.234ZM127.264 145.746H126.098V147.792H127.374C127.623 147.792 127.843 147.682 128.034 147.462C128.224 147.235 128.32 146.993 128.32 146.736C128.32 146.428 128.232 146.186 128.056 146.01C127.88 145.834 127.616 145.746 127.264 145.746ZM128.914 150.069C128.914 149.732 128.8 149.446 128.573 149.211C128.345 148.977 128.048 148.859 127.682 148.859H126.098V151.466H127.77C128.1 151.466 128.371 151.334 128.584 151.07C128.804 150.799 128.914 150.465 128.914 150.069Z" fill="white"/>
<path d="M168.706 147.891H167.65L167.342 149.321H168.398L168.2 150.289H167.155L166.803 151.95H165.725L166.077 150.289H164.955L164.603 151.95H163.525L163.877 150.289H162.799L163.008 149.321H164.064L164.372 147.891H163.305L163.525 146.923H164.57L164.911 145.262H165.989L165.648 146.923H166.77L167.111 145.262H168.189L167.848 146.923H168.915L168.706 147.891ZM166.264 149.321L166.572 147.891H165.45L165.142 149.321H166.264ZM171.995 152.544L173.425 150.311C173.279 150.392 173.106 150.432 172.908 150.432C172.146 150.447 171.478 150.168 170.906 149.596C170.334 149.024 170.056 148.357 170.07 147.594C170.056 146.832 170.334 146.164 170.906 145.592C171.478 145.02 172.146 144.742 172.908 144.756C173.664 144.742 174.327 145.02 174.899 145.592C175.471 146.164 175.754 146.832 175.746 147.594C175.746 148.188 175.57 148.738 175.218 149.244L173.117 152.544H171.995ZM174.668 147.594C174.668 147.103 174.496 146.681 174.151 146.329C173.807 145.977 173.389 145.801 172.897 145.801C172.413 145.801 171.999 145.977 171.654 146.329C171.317 146.674 171.148 147.096 171.148 147.594C171.148 148.093 171.317 148.518 171.654 148.87C171.992 149.215 172.406 149.387 172.897 149.387C173.389 149.387 173.807 149.215 174.151 148.87C174.496 148.518 174.668 148.093 174.668 147.594ZM178.826 152.544L180.256 150.311C180.109 150.392 179.937 150.432 179.739 150.432C178.976 150.447 178.309 150.168 177.737 149.596C177.165 149.024 176.886 148.357 176.901 147.594C176.886 146.832 177.165 146.164 177.737 145.592C178.309 145.02 178.976 144.742 179.739 144.756C180.494 144.742 181.158 145.02 181.73 145.592C182.302 146.164 182.584 146.832 182.577 147.594C182.577 148.188 182.401 148.738 182.049 149.244L179.948 152.544H178.826ZM181.499 147.594C181.499 147.103 181.326 146.681 180.982 146.329C180.637 145.977 180.219 145.801 179.728 145.801C179.244 145.801 178.829 145.977 178.485 146.329C178.147 146.674 177.979 147.096 177.979 147.594C177.979 148.093 178.147 148.518 178.485 148.87C178.822 149.215 179.236 149.387 179.728 149.387C180.219 149.387 180.637 149.215 180.982 148.87C181.326 148.518 181.499 148.093 181.499 147.594ZM188.758 150.234C188.758 150.88 188.545 151.411 188.12 151.829C187.702 152.247 187.178 152.456 186.547 152.456H183.786V144.756H186.03C186.697 144.756 187.218 144.918 187.592 145.24C187.973 145.563 188.164 146.01 188.164 146.582C188.164 147.338 187.893 147.895 187.35 148.254C188.289 148.621 188.758 149.281 188.758 150.234ZM186.03 145.746H184.864V147.792H186.14C186.389 147.792 186.609 147.682 186.8 147.462C186.991 147.235 187.086 146.993 187.086 146.736C187.086 146.428 186.998 146.186 186.822 146.01C186.646 145.834 186.382 145.746 186.03 145.746ZM187.68 150.069C187.68 149.732 187.566 149.446 187.339 149.211C187.112 148.977 186.815 148.859 186.448 148.859H184.864V151.466H186.536C186.866 151.466 187.137 151.334 187.35 151.07C187.57 150.799 187.68 150.465 187.68 150.069ZM189.906 149.706H190.984C190.984 150.22 191.149 150.649 191.479 150.993C191.809 151.331 192.235 151.499 192.755 151.499C193.276 151.499 193.698 151.338 194.02 151.015C194.343 150.693 194.504 150.267 194.504 149.739C194.504 149.211 194.339 148.79 194.009 148.474C193.679 148.152 193.243 147.99 192.7 147.99C192.29 147.99 191.923 148.115 191.6 148.364L190.808 147.781L191.611 144.756H195.12V145.801H192.403L192.073 147.077C192.271 146.989 192.477 146.945 192.689 146.945C193.511 146.945 194.196 147.209 194.746 147.737C195.304 148.265 195.582 148.933 195.582 149.739C195.582 150.553 195.315 151.224 194.779 151.752C194.244 152.28 193.566 152.544 192.744 152.544C191.93 152.544 191.252 152.277 190.709 151.741C190.174 151.206 189.906 150.528 189.906 149.706ZM196.737 148.606C196.715 147.521 197.096 146.59 197.881 145.812C198.673 145.028 199.611 144.646 200.697 144.668C201.525 144.668 202.262 144.892 202.908 145.339C203.568 145.801 204.033 146.388 204.305 147.099H203.139C202.897 146.674 202.559 146.34 202.127 146.098C201.694 145.849 201.217 145.724 200.697 145.724C199.897 145.724 199.215 146.007 198.651 146.571C198.093 147.129 197.815 147.807 197.815 148.606C197.815 149.406 198.093 150.088 198.651 150.652C199.215 151.21 199.897 151.488 200.697 151.488C201.203 151.488 201.665 151.371 202.083 151.136C202.508 150.902 202.853 150.579 203.117 150.168H204.283C203.997 150.88 203.531 151.455 202.886 151.895C202.233 152.328 201.503 152.544 200.697 152.544C199.611 152.566 198.673 152.189 197.881 151.411C197.096 150.627 196.715 149.692 196.737 148.606ZM205.326 144.756H210.309V145.746L206.877 152.456H205.766L209.209 145.746H205.326V144.756Z" fill="white"/>
<path d="M245.955 147.891H244.899L244.591 149.321H245.647L245.449 150.289H244.404L244.052 151.95H242.974L243.326 150.289H242.204L241.852 151.95H240.774L241.126 150.289H240.048L240.257 149.321H241.313L241.621 147.891H240.554L240.774 146.923H241.819L242.16 145.262H243.238L242.897 146.923H244.019L244.36 145.262H245.438L245.097 146.923H246.164L245.955 147.891ZM243.513 149.321L243.821 147.891H242.699L242.391 149.321H243.513ZM247.319 148.606C247.297 147.521 247.679 146.59 248.463 145.812C249.255 145.028 250.194 144.646 251.279 144.668C252.108 144.668 252.845 144.892 253.49 145.339C254.15 145.801 254.616 146.388 254.887 147.099H253.721C253.479 146.674 253.142 146.34 252.709 146.098C252.277 145.849 251.8 145.724 251.279 145.724C250.48 145.724 249.798 146.007 249.233 146.571C248.676 147.129 248.397 147.807 248.397 148.606C248.397 149.406 248.676 150.088 249.233 150.652C249.798 151.21 250.48 151.488 251.279 151.488C251.785 151.488 252.247 151.371 252.665 151.136C253.091 150.902 253.435 150.579 253.699 150.168H254.865C254.579 150.88 254.114 151.455 253.468 151.895C252.816 152.328 252.086 152.544 251.279 152.544C250.194 152.566 249.255 152.189 248.463 151.411C247.679 150.627 247.297 149.692 247.319 148.606ZM256.04 148.606C256.018 147.521 256.4 146.59 257.184 145.812C257.976 145.028 258.915 144.646 260 144.668C260.829 144.668 261.566 144.892 262.211 145.339C262.871 145.801 263.337 146.388 263.608 147.099H262.442C262.2 146.674 261.863 146.34 261.43 146.098C260.998 145.849 260.521 145.724 260 145.724C259.201 145.724 258.519 146.007 257.954 146.571C257.397 147.129 257.118 147.807 257.118 148.606C257.118 149.406 257.397 150.088 257.954 150.652C258.519 151.21 259.201 151.488 260 151.488C260.506 151.488 260.968 151.371 261.386 151.136C261.812 150.902 262.156 150.579 262.42 150.168H263.586C263.3 150.88 262.835 151.455 262.189 151.895C261.537 152.328 260.807 152.544 260 152.544C258.915 152.566 257.976 152.189 257.184 151.411C256.4 150.627 256.018 149.692 256.04 148.606ZM271.032 148.606C271.054 149.684 270.669 150.601 269.877 151.356C269.092 152.104 268.157 152.471 267.072 152.456H264.817V144.756H267.072C268.157 144.742 269.092 145.112 269.877 145.867C270.669 146.615 271.054 147.528 271.032 148.606ZM269.118 150.63C269.675 150.088 269.954 149.413 269.954 148.606C269.954 147.8 269.675 147.129 269.118 146.593C268.568 146.051 267.886 145.779 267.072 145.779H265.895V151.433H267.072C267.886 151.433 268.568 151.166 269.118 150.63ZM277.267 152.456L276.552 150.586H273.186L272.471 152.456H271.36L274.33 144.756H275.408L278.378 152.456H277.267ZM273.549 149.585H276.189L274.869 146.197L273.549 149.585ZM283.837 145.801H280.383V147.902H283.419V148.947H280.383V151.411H283.837V152.456H279.305V144.756H283.837V145.801ZM284.907 150.245H285.985C285.985 150.605 286.125 150.902 286.403 151.136C286.697 151.371 287.034 151.488 287.415 151.488C287.855 151.488 288.204 151.36 288.46 151.103C288.724 150.839 288.856 150.487 288.856 150.047C288.856 149.593 288.706 149.23 288.405 148.958C288.105 148.687 287.712 148.551 287.228 148.551H286.964L286.953 147.66H287.184C287.514 147.66 287.793 147.569 288.02 147.385C288.248 147.195 288.361 146.949 288.361 146.648C288.361 146.362 288.277 146.131 288.108 145.955C287.94 145.772 287.716 145.68 287.437 145.68C287.151 145.68 286.92 145.765 286.744 145.933C286.568 146.102 286.48 146.304 286.48 146.538H285.402C285.402 146.01 285.6 145.567 285.996 145.207C286.392 144.848 286.865 144.668 287.415 144.668C287.98 144.668 288.457 144.837 288.845 145.174C289.241 145.504 289.439 145.93 289.439 146.45C289.439 147.169 289.113 147.715 288.46 148.089C289.443 148.427 289.934 149.127 289.934 150.19C289.934 150.858 289.692 151.415 289.208 151.862C288.724 152.31 288.134 152.533 287.437 152.533C286.748 152.533 286.154 152.317 285.655 151.884C285.157 151.444 284.907 150.898 284.907 150.245Z" fill="#004573"/>
</g>
</svg>
