<svg width="310" height="184" viewBox="0 0 310 184" fill="none" xmlns="http://www.w3.org/2000/svg">
<mask id="mask0_6_432" style="mask-type:alpha" maskUnits="userSpaceOnUse" x="0" y="0" width="310" height="184">
<rect width="310" height="184" rx="16" fill="#141F33"/>
</mask>
<g mask="url(#mask0_6_432)">
<path d="M0 16C0 7.16344 7.16344 0 16 0H294C302.837 0 310 7.16344 310 16V184H0V16Z" fill="#66A6CC"/>
<rect x="155" y="136" width="77" height="48" fill="#C2DBEB"/>
<rect x="232" y="136" width="78" height="48" fill="#E0EDF5"/>
<rect y="136" width="77" height="48" fill="#85B8D6"/>
<rect x="77" y="136" width="78" height="48" fill="#A3CAE0"/>
<path d="M26.71 30.7C26.746 32.464 26.116 33.964 24.82 35.2C23.536 36.424 22.006 37.024 20.23 37H16.54V24.4H20.23C22.006 24.376 23.536 24.982 24.82 26.218C26.116 27.442 26.746 28.936 26.71 30.7ZM23.578 34.012C24.49 33.124 24.946 32.02 24.946 30.7C24.946 29.38 24.49 28.282 23.578 27.406C22.678 26.518 21.562 26.074 20.23 26.074H18.304V35.326H20.23C21.562 35.326 22.678 34.888 23.578 34.012ZM28.0121 32.5C27.9881 31.252 28.4441 30.16 29.3801 29.224C30.3161 28.288 31.4081 27.832 32.6561 27.856C33.9041 27.832 34.9901 28.288 35.9141 29.224C36.8501 30.16 37.3061 31.252 37.2821 32.5V37H35.5181V35.578C35.3021 36.022 34.9241 36.394 34.3841 36.694C33.8441 36.994 33.2681 37.144 32.6561 37.144C31.4081 37.168 30.3161 36.712 29.3801 35.776C28.4441 34.84 27.9881 33.748 28.0121 32.5ZM35.5361 32.5C35.5361 31.672 35.2601 30.976 34.7081 30.412C34.1681 29.848 33.4901 29.566 32.6741 29.566C31.8581 29.566 31.1681 29.854 30.6041 30.43C30.0521 30.994 29.7761 31.684 29.7761 32.5C29.7761 33.316 30.0581 34.012 30.6221 34.588C31.1861 35.152 31.8701 35.434 32.6741 35.434C33.4781 35.434 34.1561 35.152 34.7081 34.588C35.2601 34.012 35.5361 33.316 35.5361 32.5ZM38.9435 37V32.302C38.9435 30.898 39.2795 29.824 39.9515 29.08C40.6235 28.336 41.5475 27.964 42.7235 27.964H42.9035V29.674H42.7235C41.3795 29.674 40.7075 30.55 40.7075 32.302V37H38.9435ZM44.283 37V24.4H46.047V31.42L49.557 28H51.807L48.351 31.438L52.401 37H50.439L47.145 32.554L46.047 33.616V37H44.283ZM66.6487 33.364C66.6487 34.42 66.3007 35.29 65.6047 35.974C64.9207 36.658 64.0627 37 63.0307 37H58.5127V24.4H62.1847C63.2767 24.4 64.1287 24.664 64.7407 25.192C65.3647 25.72 65.6767 26.452 65.6767 27.388C65.6767 28.624 65.2327 29.536 64.3447 30.124C65.8807 30.724 66.6487 31.804 66.6487 33.364ZM62.1847 26.02H60.2767V29.368H62.3647C62.7727 29.368 63.1327 29.188 63.4447 28.828C63.7567 28.456 63.9127 28.06 63.9127 27.64C63.9127 27.136 63.7687 26.74 63.4807 26.452C63.1927 26.164 62.7607 26.02 62.1847 26.02ZM64.8847 33.094C64.8847 32.542 64.6987 32.074 64.3267 31.69C63.9547 31.306 63.4687 31.114 62.8687 31.114H60.2767V35.38H63.0127C63.5527 35.38 63.9967 35.164 64.3447 34.732C64.7047 34.288 64.8847 33.742 64.8847 33.094ZM69.7997 37H68.0357V24.4H69.7997V37ZM77.6151 28H79.3791V32.734C79.3791 34.174 79.0251 35.272 78.3171 36.028C77.6091 36.772 76.6431 37.144 75.4191 37.144C74.1951 37.144 73.2291 36.772 72.5211 36.028C71.8131 35.272 71.4591 34.174 71.4591 32.734V28H73.2231V32.734C73.2231 34.534 73.9551 35.434 75.4191 35.434C76.8831 35.434 77.6151 34.534 77.6151 32.734V28ZM85.3411 27.856C86.5651 27.856 87.6331 28.276 88.5451 29.116C89.4691 29.944 89.9491 31.018 89.9851 32.338C89.9851 32.638 89.9671 32.908 89.9311 33.148H82.6591C82.7311 33.82 83.0131 34.372 83.5051 34.804C84.0091 35.224 84.6211 35.434 85.3411 35.434C86.2171 35.434 86.9371 35.134 87.5011 34.534L89.6071 34.552C89.2111 35.344 88.6351 35.974 87.8791 36.442C87.1231 36.91 86.2951 37.144 85.3951 37.144C84.1351 37.168 83.0431 36.718 82.1191 35.794C81.1951 34.87 80.7451 33.778 80.7691 32.518C80.7451 31.258 81.1891 30.16 82.1011 29.224C83.0131 28.288 84.0931 27.832 85.3411 27.856ZM82.6591 31.708H88.0951C87.9271 31.084 87.5911 30.574 87.0871 30.178C86.5951 29.77 86.0311 29.566 85.3951 29.566C84.7231 29.566 84.1411 29.764 83.6491 30.16C83.1571 30.544 82.8271 31.06 82.6591 31.708Z" fill="white"/>
<path d="M36.16 101.7H32.092L30.94 107.1H35.008L34.576 109.152H30.544L29.248 115.344H26.944L28.24 109.152H23.344L22.048 115.344H19.744L21.04 109.152H16.9L17.368 107.1H21.436L22.588 101.7H18.484L18.988 99.648H23.02L24.28 93.456H26.584L25.324 99.648H30.22L31.48 93.456H33.784L32.524 99.648H36.628L36.16 101.7ZM28.636 107.1L29.788 101.7H24.892L23.74 107.1H28.636ZM38.8156 108C38.8156 105.744 39.4756 103.452 40.7956 101.124C42.1396 98.772 43.8076 96.756 45.7996 95.076C47.8636 93.348 49.8556 92.256 51.7756 91.8V93.924C50.2396 94.476 48.7516 95.34 47.3116 96.516C45.8956 97.692 44.6956 99 43.7116 100.44C44.9836 99.36 46.5316 98.82 48.3556 98.82C50.8276 98.772 52.9636 99.684 54.7636 101.556C56.5636 103.404 57.4396 105.552 57.3916 108C57.4396 110.496 56.5276 112.68 54.6556 114.552C52.7836 116.424 50.5996 117.336 48.1036 117.288C45.5836 117.336 43.3876 116.448 41.5156 114.624C39.6676 112.776 38.7676 110.568 38.8156 108ZM55.0876 108C55.0876 106.008 54.4156 104.328 53.0716 102.96C51.7276 101.592 50.0836 100.908 48.1396 100.908C46.1956 100.908 44.5396 101.592 43.1716 102.96C41.8036 104.328 41.1196 105.996 41.1196 107.964C41.1196 109.932 41.8036 111.612 43.1716 113.004C44.5396 114.396 46.1956 115.092 48.1396 115.092C50.0356 115.092 51.6676 114.396 53.0356 113.004C54.4036 111.612 55.0876 109.944 55.0876 108ZM59.6062 108C59.6062 105.744 60.2662 103.452 61.5862 101.124C62.9302 98.772 64.5982 96.756 66.5902 95.076C68.6542 93.348 70.6462 92.256 72.5662 91.8V93.924C71.0302 94.476 69.5422 95.34 68.1022 96.516C66.6862 97.692 65.4862 99 64.5022 100.44C65.7742 99.36 67.3222 98.82 69.1463 98.82C71.6182 98.772 73.7542 99.684 75.5543 101.556C77.3543 103.404 78.2303 105.552 78.1822 108C78.2303 110.496 77.3183 112.68 75.4463 114.552C73.5743 116.424 71.3903 117.336 68.8943 117.288C66.3742 117.336 64.1782 116.448 62.3062 114.624C60.4582 112.776 59.5582 110.568 59.6062 108ZM75.8783 108C75.8783 106.008 75.2063 104.328 73.8623 102.96C72.5182 101.592 70.8742 100.908 68.9302 100.908C66.9862 100.908 65.3302 101.592 63.9622 102.96C62.5942 104.328 61.9102 105.996 61.9102 107.964C61.9102 109.932 62.5942 111.612 63.9622 113.004C65.3302 114.396 66.9862 115.092 68.9302 115.092C70.8262 115.092 72.4582 114.396 73.8262 113.004C75.1943 111.612 75.8783 109.944 75.8783 108ZM100.053 117L97.2809 110.232H84.6809L81.9089 117H79.4969L89.7929 91.8H92.0969L102.465 117H100.053ZM85.4729 108.072H96.4529L90.9449 94.824L85.4729 108.072ZM103.754 108C103.754 105.744 104.414 103.452 105.734 101.124C107.078 98.772 108.746 96.756 110.738 95.076C112.802 93.348 114.794 92.256 116.714 91.8V93.924C115.178 94.476 113.69 95.34 112.25 96.516C110.834 97.692 109.634 99 108.65 100.44C109.922 99.36 111.47 98.82 113.294 98.82C115.766 98.772 117.902 99.684 119.702 101.556C121.502 103.404 122.378 105.552 122.33 108C122.378 110.496 121.466 112.68 119.594 114.552C117.722 116.424 115.538 117.336 113.042 117.288C110.522 117.336 108.326 116.448 106.454 114.624C104.606 112.776 103.706 110.568 103.754 108ZM120.026 108C120.026 106.008 119.354 104.328 118.01 102.96C116.666 101.592 115.022 100.908 113.078 100.908C111.134 100.908 109.478 101.592 108.11 102.96C106.742 104.328 106.058 105.996 106.058 107.964C106.058 109.932 106.742 111.612 108.11 113.004C109.478 114.396 111.134 115.092 113.078 115.092C114.974 115.092 116.606 114.396 117.974 113.004C119.342 111.612 120.026 109.944 120.026 108ZM124.545 104.4C124.473 100.848 125.721 97.8 128.289 95.256C130.881 92.688 133.953 91.44 137.505 91.512C139.905 91.512 142.101 92.112 144.093 93.312C146.061 94.512 147.573 96.096 148.629 98.064H146.001C145.065 96.72 143.853 95.676 142.365 94.932C140.877 94.164 139.257 93.78 137.505 93.78C134.601 93.732 132.081 94.764 129.945 96.876C127.833 98.964 126.801 101.472 126.849 104.4C126.801 107.328 127.833 109.848 129.945 111.96C132.081 114.048 134.601 115.068 137.505 115.02C141.009 115.02 143.829 113.628 145.965 110.844H148.593C147.561 112.74 146.037 114.3 144.021 115.524C142.053 116.7 139.881 117.288 137.505 117.288C133.953 117.36 130.881 116.124 128.289 113.58C125.721 111.012 124.473 107.952 124.545 104.4ZM150.82 104.4C150.748 100.848 151.996 97.8 154.564 95.256C157.156 92.688 160.228 91.44 163.78 91.512C166.18 91.512 168.376 92.112 170.368 93.312C172.336 94.512 173.848 96.096 174.904 98.064H172.276C171.34 96.72 170.128 95.676 168.64 94.932C167.152 94.164 165.532 93.78 163.78 93.78C160.876 93.732 158.356 94.764 156.22 96.876C154.108 98.964 153.076 101.472 153.124 104.4C153.076 107.328 154.108 109.848 156.22 111.96C158.356 114.048 160.876 115.068 163.78 115.02C167.284 115.02 170.104 113.628 172.24 110.844H174.868C173.836 112.74 172.312 114.3 170.296 115.524C168.328 116.7 166.156 117.288 163.78 117.288C160.228 117.36 157.156 116.124 154.564 113.58C151.996 111.012 150.748 107.952 150.82 104.4Z" fill="white"/>
<path d="M14.182 148.435H13.126L12.818 149.865H13.874L13.676 150.833H12.631L12.279 152.494H11.201L11.553 150.833H10.431L10.079 152.494H9.001L9.353 150.833H8.275L8.484 149.865H9.54L9.848 148.435H8.781L9.001 147.467H10.046L10.387 145.806H11.465L11.124 147.467H12.246L12.587 145.806H13.665L13.324 147.467H14.391L14.182 148.435ZM11.74 149.865L12.048 148.435H10.926L10.618 149.865H11.74ZM15.5459 150.701C15.5459 150.283 15.6449 149.902 15.8429 149.557C16.0482 149.205 16.3269 148.926 16.6789 148.721C16.1509 148.332 15.8869 147.819 15.8869 147.181C15.8869 146.631 16.0922 146.165 16.5029 145.784C16.9209 145.403 17.4489 145.212 18.0869 145.212C18.7249 145.212 19.2492 145.403 19.6599 145.784C20.0706 146.165 20.2759 146.631 20.2759 147.181C20.2759 147.819 20.0156 148.329 19.4949 148.71C19.8469 148.915 20.1219 149.194 20.3199 149.546C20.5252 149.898 20.6279 150.283 20.6279 150.701C20.6279 151.368 20.3822 151.933 19.8909 152.395C19.4069 152.857 18.8056 153.088 18.0869 153.088C17.3682 153.088 16.7632 152.857 16.2719 152.395C15.7879 151.933 15.5459 151.368 15.5459 150.701ZM19.1649 147.214C19.1649 146.928 19.0659 146.697 18.8679 146.521C18.6772 146.345 18.4169 146.257 18.0869 146.257C17.7569 146.257 17.4929 146.345 17.2949 146.521C17.1042 146.697 17.0089 146.928 17.0089 147.214C17.0089 147.507 17.1042 147.742 17.2949 147.918C17.4929 148.094 17.7569 148.182 18.0869 148.182C18.4169 148.182 18.6772 148.094 18.8679 147.918C19.0659 147.742 19.1649 147.507 19.1649 147.214ZM19.5059 150.668C19.5059 150.265 19.3702 149.935 19.0989 149.678C18.8349 149.414 18.4939 149.282 18.0759 149.282C17.6652 149.282 17.3242 149.414 17.0529 149.678C16.7889 149.935 16.6569 150.265 16.6569 150.668C16.6569 151.064 16.7889 151.394 17.0529 151.658C17.3242 151.915 17.6652 152.043 18.0759 152.043C18.4939 152.043 18.8349 151.915 19.0989 151.658C19.3702 151.394 19.5059 151.064 19.5059 150.668ZM21.7748 150.25H22.8528C22.8528 150.763 23.0178 151.192 23.3478 151.537C23.6778 151.874 24.1031 152.043 24.6238 152.043C25.1445 152.043 25.5661 151.882 25.8888 151.559C26.2115 151.236 26.3728 150.811 26.3728 150.283C26.3728 149.755 26.2078 149.333 25.8778 149.018C25.5478 148.695 25.1115 148.534 24.5688 148.534C24.1581 148.534 23.7915 148.659 23.4688 148.908L22.6768 148.325L23.4798 145.3H26.9888V146.345H24.2718L23.9418 147.621C24.1398 147.533 24.3451 147.489 24.5578 147.489C25.3791 147.489 26.0648 147.753 26.6148 148.281C27.1721 148.809 27.4508 149.476 27.4508 150.283C27.4508 151.097 27.1831 151.768 26.6478 152.296C26.1125 152.824 25.4341 153.088 24.6128 153.088C23.7988 153.088 23.1205 152.82 22.5778 152.285C22.0425 151.75 21.7748 151.071 21.7748 150.25ZM33.6323 150.778C33.6323 151.423 33.4196 151.955 32.9943 152.373C32.5763 152.791 32.0519 153 31.4213 153H28.6603V145.3H30.9043C31.5716 145.3 32.0923 145.461 32.4663 145.784C32.8476 146.107 33.0383 146.554 33.0383 147.126C33.0383 147.881 32.7669 148.439 32.2243 148.798C33.1629 149.165 33.6323 149.825 33.6323 150.778ZM30.9043 146.29H29.7383V148.336H31.0143C31.2636 148.336 31.4836 148.226 31.6743 148.006C31.8649 147.779 31.9603 147.537 31.9603 147.28C31.9603 146.972 31.8723 146.73 31.6963 146.554C31.5203 146.378 31.2563 146.29 30.9043 146.29ZM32.5543 150.613C32.5543 150.276 32.4406 149.99 32.2133 149.755C31.9859 149.52 31.6889 149.403 31.3223 149.403H29.7383V152.01H31.4103C31.7403 152.01 32.0116 151.878 32.2243 151.614C32.4443 151.343 32.5543 151.009 32.5543 150.613ZM34.7805 150.701C34.7805 150.283 34.8795 149.902 35.0775 149.557C35.2828 149.205 35.5615 148.926 35.9135 148.721C35.3855 148.332 35.1215 147.819 35.1215 147.181C35.1215 146.631 35.3268 146.165 35.7375 145.784C36.1555 145.403 36.6835 145.212 37.3215 145.212C37.9595 145.212 38.4838 145.403 38.8945 145.784C39.3051 146.165 39.5105 146.631 39.5105 147.181C39.5105 147.819 39.2501 148.329 38.7295 148.71C39.0815 148.915 39.3565 149.194 39.5545 149.546C39.7598 149.898 39.8625 150.283 39.8625 150.701C39.8625 151.368 39.6168 151.933 39.1255 152.395C38.6415 152.857 38.0401 153.088 37.3215 153.088C36.6028 153.088 35.9978 152.857 35.5065 152.395C35.0225 151.933 34.7805 151.368 34.7805 150.701ZM38.3995 147.214C38.3995 146.928 38.3005 146.697 38.1025 146.521C37.9118 146.345 37.6515 146.257 37.3215 146.257C36.9915 146.257 36.7275 146.345 36.5295 146.521C36.3388 146.697 36.2435 146.928 36.2435 147.214C36.2435 147.507 36.3388 147.742 36.5295 147.918C36.7275 148.094 36.9915 148.182 37.3215 148.182C37.6515 148.182 37.9118 148.094 38.1025 147.918C38.3005 147.742 38.3995 147.507 38.3995 147.214ZM38.7405 150.668C38.7405 150.265 38.6048 149.935 38.3335 149.678C38.0695 149.414 37.7285 149.282 37.3105 149.282C36.8998 149.282 36.5588 149.414 36.2875 149.678C36.0235 149.935 35.8915 150.265 35.8915 150.668C35.8915 151.064 36.0235 151.394 36.2875 151.658C36.5588 151.915 36.8998 152.043 37.3105 152.043C37.7285 152.043 38.0695 151.915 38.3335 151.658C38.6048 151.394 38.7405 151.064 38.7405 150.668ZM47.2794 149.15C47.3014 150.228 46.9164 151.145 46.1244 151.9C45.3397 152.648 44.4047 153.015 43.3194 153H41.0644V145.3H43.3194C44.4047 145.285 45.3397 145.656 46.1244 146.411C46.9164 147.159 47.3014 148.072 47.2794 149.15ZM45.3654 151.174C45.9227 150.631 46.2014 149.957 46.2014 149.15C46.2014 148.343 45.9227 147.672 45.3654 147.137C44.8154 146.594 44.1334 146.323 43.3194 146.323H42.1424V151.977H43.3194C44.1334 151.977 44.8154 151.709 45.3654 151.174ZM48.4307 150.25C48.4307 149.517 48.636 148.791 49.0467 148.072C49.472 147.346 50.0037 146.734 50.6417 146.235C51.287 145.736 51.947 145.425 52.6217 145.3V146.312C52.2183 146.422 51.8187 146.605 51.4227 146.862C51.034 147.119 50.7187 147.408 50.4767 147.731C50.7553 147.555 51.0707 147.467 51.4227 147.467C52.1707 147.452 52.8087 147.731 53.3367 148.303C53.8647 148.868 54.1213 149.517 54.1067 150.25C54.1213 151.013 53.8427 151.68 53.2707 152.252C52.6987 152.824 52.0313 153.103 51.2687 153.088C50.4987 153.103 49.8277 152.831 49.2557 152.274C48.691 151.709 48.416 151.035 48.4307 150.25ZM52.5117 151.526C52.8563 151.174 53.0287 150.749 53.0287 150.25C53.0287 149.751 52.86 149.33 52.5227 148.985C52.1853 148.633 51.771 148.457 51.2797 148.457C50.7883 148.457 50.3703 148.633 50.0257 148.985C49.681 149.33 49.5087 149.751 49.5087 150.25C49.5087 150.749 49.681 151.174 50.0257 151.526C50.3703 151.871 50.7883 152.043 51.2797 152.043C51.7637 152.043 52.1743 151.871 52.5117 151.526Z" fill="white"/>
<path d="M91.182 148.435H90.126L89.818 149.865H90.874L90.676 150.833H89.631L89.279 152.494H88.201L88.553 150.833H87.431L87.079 152.494H86.001L86.353 150.833H85.275L85.484 149.865H86.54L86.848 148.435H85.781L86.001 147.467H87.046L87.387 145.806H88.465L88.124 147.467H89.246L89.587 145.806H90.665L90.324 147.467H91.391L91.182 148.435ZM88.74 149.865L89.048 148.435H87.926L87.618 149.865H88.74ZM98.1779 153L97.4629 151.13H94.0969L93.3819 153H92.2709L95.2409 145.3H96.3189L99.2889 153H98.1779ZM94.4599 150.129H97.0999L95.7799 146.741L94.4599 150.129ZM100.084 150.789H101.162C101.162 151.148 101.301 151.445 101.58 151.68C101.873 151.915 102.21 152.032 102.592 152.032C103.032 152.032 103.38 151.904 103.637 151.647C103.901 151.383 104.033 151.031 104.033 150.591C104.033 150.136 103.882 149.773 103.582 149.502C103.281 149.231 102.889 149.095 102.405 149.095H102.141L102.13 148.204H102.361C102.691 148.204 102.969 148.112 103.197 147.929C103.424 147.738 103.538 147.493 103.538 147.192C103.538 146.906 103.453 146.675 103.285 146.499C103.116 146.316 102.892 146.224 102.614 146.224C102.328 146.224 102.097 146.308 101.921 146.477C101.745 146.646 101.657 146.847 101.657 147.082H100.579C100.579 146.554 100.777 146.11 101.173 145.751C101.569 145.392 102.042 145.212 102.592 145.212C103.156 145.212 103.633 145.381 104.022 145.718C104.418 146.048 104.616 146.473 104.616 146.994C104.616 147.713 104.289 148.259 103.637 148.633C104.619 148.97 105.111 149.671 105.111 150.734C105.111 151.401 104.869 151.959 104.385 152.406C103.901 152.853 103.31 153.077 102.614 153.077C101.924 153.077 101.33 152.861 100.832 152.428C100.333 151.988 100.084 151.442 100.084 150.789ZM106.185 149.15C106.163 148.065 106.545 147.133 107.329 146.356C108.121 145.571 109.06 145.19 110.145 145.212C110.974 145.212 111.711 145.436 112.356 145.883C113.016 146.345 113.482 146.932 113.753 147.643H112.587C112.345 147.218 112.008 146.884 111.575 146.642C111.143 146.393 110.666 146.268 110.145 146.268C109.346 146.268 108.664 146.55 108.099 147.115C107.542 147.672 107.263 148.351 107.263 149.15C107.263 149.949 107.542 150.631 108.099 151.196C108.664 151.753 109.346 152.032 110.145 152.032C110.651 152.032 111.113 151.915 111.531 151.68C111.957 151.445 112.301 151.123 112.565 150.712H113.731C113.445 151.423 112.98 151.999 112.334 152.439C111.682 152.872 110.952 153.088 110.145 153.088C109.06 153.11 108.121 152.732 107.329 151.955C106.545 151.17 106.163 150.235 106.185 149.15ZM120.205 153L119.49 151.13H116.124L115.409 153H114.298L117.268 145.3H118.346L121.316 153H120.205ZM116.487 150.129H119.127L117.807 146.741L116.487 150.129ZM126.775 146.345H123.321V148.446H126.357V149.491H123.321V151.955H126.775V153H122.243V145.3H126.775V146.345ZM132.972 146.312C133.515 147.045 133.786 147.991 133.786 149.15C133.786 150.309 133.515 151.258 132.972 151.999C132.437 152.732 131.733 153.099 130.86 153.099C129.98 153.099 129.269 152.732 128.726 151.999C128.191 151.258 127.923 150.309 127.923 149.15C127.923 147.991 128.191 147.045 128.726 146.312C129.269 145.571 129.98 145.201 130.86 145.201C131.733 145.201 132.437 145.571 132.972 146.312ZM129.518 147.049C129.173 147.584 129.001 148.285 129.001 149.15C129.001 150.015 129.173 150.716 129.518 151.251C129.863 151.786 130.31 152.054 130.86 152.054C131.403 152.054 131.846 151.786 132.191 151.251C132.536 150.716 132.708 150.015 132.708 149.15C132.708 148.285 132.536 147.584 132.191 147.049C131.846 146.514 131.403 146.246 130.86 146.246C130.31 146.246 129.863 146.514 129.518 147.049Z" fill="#004573"/>
<path d="M168.182 148.435H167.126L166.818 149.865H167.874L167.676 150.833H166.631L166.279 152.494H165.201L165.553 150.833H164.431L164.079 152.494H163.001L163.353 150.833H162.275L162.484 149.865H163.54L163.848 148.435H162.781L163.001 147.467H164.046L164.387 145.806H165.465L165.124 147.467H166.246L166.587 145.806H167.665L167.324 147.467H168.391L168.182 148.435ZM165.74 149.865L166.048 148.435H164.926L164.618 149.865H165.74ZM169.546 149.15C169.524 148.065 169.905 147.133 170.69 146.356C171.482 145.571 172.421 145.19 173.506 145.212C174.335 145.212 175.072 145.436 175.717 145.883C176.377 146.345 176.843 146.932 177.114 147.643H175.948C175.706 147.218 175.369 146.884 174.936 146.642C174.503 146.393 174.027 146.268 173.506 146.268C172.707 146.268 172.025 146.55 171.46 147.115C170.903 147.672 170.624 148.351 170.624 149.15C170.624 149.949 170.903 150.631 171.46 151.196C172.025 151.753 172.707 152.032 173.506 152.032C174.012 152.032 174.474 151.915 174.892 151.68C175.317 151.445 175.662 151.123 175.926 150.712H177.092C176.806 151.423 176.34 151.999 175.695 152.439C175.042 152.872 174.313 153.088 173.506 153.088C172.421 153.11 171.482 152.732 170.69 151.955C169.905 151.17 169.524 150.235 169.546 149.15ZM178.267 153V152.703C178.267 152.197 178.362 151.746 178.553 151.35C178.744 150.961 178.975 150.635 179.246 150.371C179.525 150.107 179.877 149.81 180.302 149.48C180.625 149.238 180.889 149.022 181.094 148.831C181.541 148.42 181.765 147.977 181.765 147.5C181.765 147.163 181.648 146.869 181.413 146.62C181.186 146.378 180.9 146.257 180.555 146.257C180.232 146.257 179.95 146.382 179.708 146.631C179.466 146.888 179.345 147.177 179.345 147.5H178.267C178.267 146.869 178.491 146.33 178.938 145.883C179.393 145.436 179.932 145.212 180.555 145.212C181.178 145.212 181.714 145.439 182.161 145.894C182.616 146.349 182.843 146.884 182.843 147.5C182.843 147.867 182.762 148.197 182.601 148.49C182.454 148.761 182.275 149.003 182.062 149.216C181.849 149.429 181.534 149.696 181.116 150.019C180.808 150.261 180.551 150.474 180.346 150.657C179.891 151.06 179.609 151.493 179.499 151.955H182.876V153H178.267ZM190.293 149.15C190.315 150.228 189.93 151.145 189.138 151.9C188.354 152.648 187.419 153.015 186.333 153H184.078V145.3H186.333C187.419 145.285 188.354 145.656 189.138 146.411C189.93 147.159 190.315 148.072 190.293 149.15ZM188.379 151.174C188.937 150.631 189.215 149.957 189.215 149.15C189.215 148.343 188.937 147.672 188.379 147.137C187.829 146.594 187.147 146.323 186.333 146.323H185.156V151.977H186.333C187.147 151.977 187.829 151.709 188.379 151.174ZM196.472 150.778C196.472 151.423 196.259 151.955 195.834 152.373C195.416 152.791 194.891 153 194.261 153H191.5V145.3H193.744C194.411 145.3 194.932 145.461 195.306 145.784C195.687 146.107 195.878 146.554 195.878 147.126C195.878 147.881 195.606 148.439 195.064 148.798C196.002 149.165 196.472 149.825 196.472 150.778ZM193.744 146.29H192.578V148.336H193.854C194.103 148.336 194.323 148.226 194.514 148.006C194.704 147.779 194.8 147.537 194.8 147.28C194.8 146.972 194.712 146.73 194.536 146.554C194.36 146.378 194.096 146.29 193.744 146.29ZM195.394 150.613C195.394 150.276 195.28 149.99 195.053 149.755C194.825 149.52 194.528 149.403 194.162 149.403H192.578V152.01H194.25C194.58 152.01 194.851 151.878 195.064 151.614C195.284 151.343 195.394 151.009 195.394 150.613ZM202.207 146.345H198.753V148.446H201.789V149.491H198.753V151.955H202.207V153H197.675V145.3H202.207V146.345ZM208.381 150.778C208.381 151.423 208.169 151.955 207.743 152.373C207.325 152.791 206.801 153 206.17 153H203.409V145.3H205.653C206.321 145.3 206.841 145.461 207.215 145.784C207.597 146.107 207.787 146.554 207.787 147.126C207.787 147.881 207.516 148.439 206.973 148.798C207.912 149.165 208.381 149.825 208.381 150.778ZM205.653 146.29H204.487V148.336H205.763C206.013 148.336 206.233 148.226 206.423 148.006C206.614 147.779 206.709 147.537 206.709 147.28C206.709 146.972 206.621 146.73 206.445 146.554C206.269 146.378 206.005 146.29 205.653 146.29ZM207.303 150.613C207.303 150.276 207.19 149.99 206.962 149.755C206.735 149.52 206.438 149.403 206.071 149.403H204.487V152.01H206.159C206.489 152.01 206.761 151.878 206.973 151.614C207.193 151.343 207.303 151.009 207.303 150.613Z" fill="#004573"/>
<path d="M245.182 148.435H244.126L243.818 149.865H244.874L244.676 150.833H243.631L243.279 152.494H242.201L242.553 150.833H241.431L241.079 152.494H240.001L240.353 150.833H239.275L239.484 149.865H240.54L240.848 148.435H239.781L240.001 147.467H241.046L241.387 145.806H242.465L242.124 147.467H243.246L243.587 145.806H244.665L244.324 147.467H245.391L245.182 148.435ZM242.74 149.865L243.048 148.435H241.926L241.618 149.865H242.74ZM251.133 146.345H247.679V148.446H250.715V149.491H247.679V151.955H251.133V153H246.601V145.3H251.133V146.345ZM257.33 146.312C257.872 147.045 258.144 147.991 258.144 149.15C258.144 150.309 257.872 151.258 257.33 151.999C256.794 152.732 256.09 153.099 255.218 153.099C254.338 153.099 253.626 152.732 253.084 151.999C252.548 151.258 252.281 150.309 252.281 149.15C252.281 147.991 252.548 147.045 253.084 146.312C253.626 145.571 254.338 145.201 255.218 145.201C256.09 145.201 256.794 145.571 257.33 146.312ZM253.876 147.049C253.531 147.584 253.359 148.285 253.359 149.15C253.359 150.015 253.531 150.716 253.876 151.251C254.22 151.786 254.668 152.054 255.218 152.054C255.76 152.054 256.204 151.786 256.549 151.251C256.893 150.716 257.066 150.015 257.066 149.15C257.066 148.285 256.893 147.584 256.549 147.049C256.204 146.514 255.76 146.246 255.218 146.246C254.668 146.246 254.22 146.514 253.876 147.049ZM263.881 146.345H260.427V148.446H263.463V149.491H260.427V151.955H263.881V153H259.349V145.3H263.881V146.345ZM271.299 149.15C271.321 150.228 270.936 151.145 270.144 151.9C269.359 152.648 268.424 153.015 267.339 153H265.084V145.3H267.339C268.424 145.285 269.359 145.656 270.144 146.411C270.936 147.159 271.321 148.072 271.299 149.15ZM269.385 151.174C269.942 150.631 270.221 149.957 270.221 149.15C270.221 148.343 269.942 147.672 269.385 147.137C268.835 146.594 268.153 146.323 267.339 146.323H266.162V151.977H267.339C268.153 151.977 268.835 151.709 269.385 151.174ZM277.037 146.345H273.583V148.446H276.619V149.491H273.583V153H272.505V145.3H277.037V146.345ZM278.185 150.25H279.263C279.263 150.763 279.428 151.192 279.758 151.537C280.088 151.874 280.513 152.043 281.034 152.043C281.554 152.043 281.976 151.882 282.299 151.559C282.621 151.236 282.783 150.811 282.783 150.283C282.783 149.755 282.618 149.333 282.288 149.018C281.958 148.695 281.521 148.534 280.979 148.534C280.568 148.534 280.201 148.659 279.879 148.908L279.087 148.325L279.89 145.3H283.399V146.345H280.682L280.352 147.621C280.55 147.533 280.755 147.489 280.968 147.489C281.789 147.489 282.475 147.753 283.025 148.281C283.582 148.809 283.861 149.476 283.861 150.283C283.861 151.097 283.593 151.768 283.058 152.296C282.522 152.824 281.844 153.088 281.023 153.088C280.209 153.088 279.53 152.82 278.988 152.285C278.452 151.75 278.185 151.071 278.185 150.25Z" fill="#004573"/>
</g>
</svg>
