<svg width="310" height="184" viewBox="0 0 310 184" fill="none" xmlns="http://www.w3.org/2000/svg">
<mask id="mask0_6_431" style="mask-type:alpha" maskUnits="userSpaceOnUse" x="0" y="0" width="310" height="184">
<rect width="310" height="184" rx="16" fill="#141F33"/>
</mask>
<g mask="url(#mask0_6_431)">
<path d="M0 16C0 7.16344 7.16344 0 16 0H294C302.837 0 310 7.16344 310 16V184H0V16Z" fill="#33B3E6"/>
<rect x="155" y="136" width="78" height="48" fill="#ADE1F5"/>
<rect x="233" y="136" width="77" height="48" fill="#D6F0FA"/>
<rect y="136" width="78" height="48" fill="#5CC2EB"/>
<rect x="78" y="136" width="77" height="48" fill="#85D1F0"/>
<path d="M24.7278 33.364C24.7278 34.42 24.3798 35.29 23.6838 35.974C22.9998 36.658 22.1418 37 21.1098 37H16.5918V24.4H20.2638C21.3558 24.4 22.2078 24.664 22.8198 25.192C23.4438 25.72 23.7558 26.452 23.7558 27.388C23.7558 28.624 23.3118 29.536 22.4238 30.124C23.9598 30.724 24.7278 31.804 24.7278 33.364ZM20.2638 26.02H18.3558V29.368H20.4438C20.8518 29.368 21.2118 29.188 21.5238 28.828C21.8358 28.456 21.9918 28.06 21.9918 27.64C21.9918 27.136 21.8478 26.74 21.5598 26.452C21.2718 26.164 20.8398 26.02 20.2638 26.02ZM22.9638 33.094C22.9638 32.542 22.7778 32.074 22.4058 31.69C22.0338 31.306 21.5478 31.114 20.9478 31.114H18.3558V35.38H21.0918C21.6318 35.38 22.0758 35.164 22.4238 34.732C22.7838 34.288 22.9638 33.742 22.9638 33.094ZM27.8788 37H26.1148V24.4H27.8788V37ZM35.6942 28H37.4582V32.734C37.4582 34.174 37.1042 35.272 36.3962 36.028C35.6882 36.772 34.7222 37.144 33.4982 37.144C32.2742 37.144 31.3082 36.772 30.6002 36.028C29.8922 35.272 29.5382 34.174 29.5382 32.734V28H31.3022V32.734C31.3022 34.534 32.0342 35.434 33.4982 35.434C34.9622 35.434 35.6942 34.534 35.6942 32.734V28ZM43.4202 27.856C44.6442 27.856 45.7122 28.276 46.6242 29.116C47.5482 29.944 48.0282 31.018 48.0642 32.338C48.0642 32.638 48.0462 32.908 48.0102 33.148H40.7382C40.8102 33.82 41.0922 34.372 41.5842 34.804C42.0882 35.224 42.7002 35.434 43.4202 35.434C44.2962 35.434 45.0162 35.134 45.5802 34.534L47.6862 34.552C47.2902 35.344 46.7142 35.974 45.9582 36.442C45.2022 36.91 44.3742 37.144 43.4742 37.144C42.2142 37.168 41.1222 36.718 40.1982 35.794C39.2742 34.87 38.8242 33.778 38.8482 32.518C38.8242 31.258 39.2682 30.16 40.1802 29.224C41.0922 28.288 42.1722 27.832 43.4202 27.856ZM40.7382 31.708H46.1742C46.0062 31.084 45.6702 30.574 45.1662 30.178C44.6742 29.77 44.1102 29.566 43.4742 29.566C42.8022 29.566 42.2202 29.764 41.7282 30.16C41.2362 30.544 40.9062 31.06 40.7382 31.708Z" fill="white"/>
<path d="M36.2118 101.7H32.1438L30.9918 107.1H35.0598L34.6278 109.152H30.5958L29.2998 115.344H26.9958L28.2918 109.152H23.3958L22.0998 115.344H19.7958L21.0918 109.152H16.9518L17.4198 107.1H21.4878L22.6398 101.7H18.5358L19.0398 99.648H23.0718L24.3318 93.456H26.6358L25.3758 99.648H30.2718L31.5318 93.456H33.8358L32.5758 99.648H36.6798L36.2118 101.7ZM28.6878 107.1L29.8398 101.7H24.9438L23.7918 107.1H28.6878ZM38.7594 109.764H41.0634C41.0634 111.276 41.6034 112.536 42.6834 113.544C43.7634 114.552 45.0714 115.056 46.6074 115.056C48.2154 115.056 49.5474 114.528 50.6034 113.472C51.6354 112.44 52.1514 111.096 52.1514 109.44C52.1514 107.832 51.5874 106.488 50.4594 105.408C49.3314 104.304 47.9394 103.752 46.2834 103.752H45.7074L45.6714 101.772H46.2114C47.4114 101.772 48.4314 101.388 49.2714 100.62C50.1114 99.828 50.5314 98.844 50.5314 97.668C50.5314 96.516 50.1714 95.568 49.4514 94.824C48.7314 94.056 47.7954 93.672 46.6434 93.672C45.4914 93.672 44.5434 94.044 43.7994 94.788C43.0554 95.508 42.6834 96.408 42.6834 97.488H40.3794C40.3794 95.784 40.9794 94.368 42.1794 93.24C43.3794 92.088 44.8554 91.512 46.6074 91.512C48.3594 91.512 49.8354 92.064 51.0354 93.168C52.2354 94.272 52.8354 95.676 52.8354 97.38C52.8354 99.876 51.7314 101.652 49.5234 102.708C51.0354 103.236 52.2354 104.124 53.1234 105.372C54.0114 106.596 54.4554 108.036 54.4554 109.692C54.4554 111.828 53.6994 113.628 52.1874 115.092C50.6754 116.532 48.8274 117.252 46.6434 117.252C44.4594 117.252 42.5994 116.532 41.0634 115.092C39.5274 113.652 38.7594 111.876 38.7594 109.764ZM56.4563 109.764H58.7603C58.7603 111.276 59.3003 112.536 60.3803 113.544C61.4603 114.552 62.7683 115.056 64.3043 115.056C65.9123 115.056 67.2443 114.528 68.3003 113.472C69.3323 112.44 69.8483 111.096 69.8483 109.44C69.8483 107.832 69.2843 106.488 68.1563 105.408C67.0283 104.304 65.6363 103.752 63.9803 103.752H63.4043L63.3683 101.772H63.9083C65.1083 101.772 66.1283 101.388 66.9683 100.62C67.8083 99.828 68.2283 98.844 68.2283 97.668C68.2283 96.516 67.8683 95.568 67.1483 94.824C66.4283 94.056 65.4923 93.672 64.3403 93.672C63.1883 93.672 62.2403 94.044 61.4963 94.788C60.7523 95.508 60.3803 96.408 60.3803 97.488H58.0763C58.0763 95.784 58.6763 94.368 59.8763 93.24C61.0763 92.088 62.5523 91.512 64.3043 91.512C66.0563 91.512 67.5323 92.064 68.7323 93.168C69.9323 94.272 70.5323 95.676 70.5323 97.38C70.5323 99.876 69.4283 101.652 67.2203 102.708C68.7323 103.236 69.9323 104.124 70.8203 105.372C71.7083 106.596 72.1523 108.036 72.1523 109.692C72.1523 111.828 71.3963 113.628 69.8843 115.092C68.3723 116.532 66.5243 117.252 64.3403 117.252C62.1563 117.252 60.2963 116.532 58.7603 115.092C57.2243 113.652 56.4563 111.876 56.4563 109.764ZM90.7131 109.728C90.7131 111.84 90.0171 113.58 88.6251 114.948C87.2571 116.316 85.5411 117 83.4771 117H74.4411V91.8H81.7851C83.9691 91.8 85.6731 92.328 86.8971 93.384C88.1451 94.44 88.7691 95.904 88.7691 97.776C88.7691 99 88.4811 100.104 87.9051 101.088C87.3291 102.048 86.5851 102.768 85.6731 103.248C87.2571 103.752 88.4931 104.58 89.3811 105.732C90.2691 106.884 90.7131 108.216 90.7131 109.728ZM81.7851 93.888H76.7451V102.348H82.1451C83.3211 102.348 84.3291 101.916 85.1691 101.052C86.0331 100.188 86.4651 99.18 86.4651 98.028C86.4651 96.732 86.0571 95.724 85.2411 95.004C84.4251 94.26 83.2731 93.888 81.7851 93.888ZM88.4091 109.44C88.4091 108.048 87.9291 106.896 86.9691 105.984C86.0331 105.072 84.7611 104.616 83.1531 104.616H76.7451V114.912H83.4411C84.8571 114.912 86.0331 114.396 86.9691 113.364C87.9291 112.332 88.4091 111.024 88.4091 109.44ZM92.7992 109.764H95.1032C95.1032 111.276 95.6432 112.536 96.7232 113.544C97.8032 114.552 99.1112 115.056 100.647 115.056C102.255 115.056 103.587 114.528 104.643 113.472C105.675 112.44 106.191 111.096 106.191 109.44C106.191 107.832 105.627 106.488 104.499 105.408C103.371 104.304 101.979 103.752 100.323 103.752H99.7472L99.7112 101.772H100.251C101.451 101.772 102.471 101.388 103.311 100.62C104.151 99.828 104.571 98.844 104.571 97.668C104.571 96.516 104.211 95.568 103.491 94.824C102.771 94.056 101.835 93.672 100.683 93.672C99.5312 93.672 98.5832 94.044 97.8392 94.788C97.0952 95.508 96.7232 96.408 96.7232 97.488H94.4192C94.4192 95.784 95.0192 94.368 96.2192 93.24C97.4192 92.088 98.8952 91.512 100.647 91.512C102.399 91.512 103.875 92.064 105.075 93.168C106.275 94.272 106.875 95.676 106.875 97.38C106.875 99.876 105.771 101.652 103.563 102.708C105.075 103.236 106.275 104.124 107.163 105.372C108.051 106.596 108.495 108.036 108.495 109.692C108.495 111.828 107.739 113.628 106.227 115.092C104.715 116.532 102.867 117.252 100.683 117.252C98.4992 117.252 96.6392 116.532 95.1032 115.092C93.5672 113.652 92.7992 111.876 92.7992 109.764ZM125.616 93.996H113.088V102.708H124.248V104.904H113.088V114.804H125.616V117H110.784V91.8H125.616V93.996ZM127.809 108C127.809 105.744 128.469 103.452 129.789 101.124C131.133 98.772 132.801 96.756 134.793 95.076C136.857 93.348 138.849 92.256 140.769 91.8V93.924C139.233 94.476 137.745 95.34 136.305 96.516C134.889 97.692 133.689 99 132.705 100.44C133.977 99.36 135.525 98.82 137.349 98.82C139.821 98.772 141.957 99.684 143.757 101.556C145.557 103.404 146.433 105.552 146.385 108C146.433 110.496 145.521 112.68 143.649 114.552C141.777 116.424 139.593 117.336 137.097 117.288C134.577 117.336 132.381 116.448 130.509 114.624C128.661 112.776 127.761 110.568 127.809 108ZM144.081 108C144.081 106.008 143.409 104.328 142.065 102.96C140.721 101.592 139.077 100.908 137.133 100.908C135.189 100.908 133.533 101.592 132.165 102.96C130.797 104.328 130.113 105.996 130.113 107.964C130.113 109.932 130.797 111.612 132.165 113.004C133.533 114.396 135.189 115.092 137.133 115.092C139.029 115.092 140.661 114.396 142.029 113.004C143.397 111.612 144.081 109.944 144.081 108Z" fill="white"/>
<path d="M14.2079 148.435H13.1519L12.8439 149.865H13.8999L13.7019 150.833H12.6569L12.3049 152.494H11.2269L11.5789 150.833H10.4569L10.1049 152.494H9.02688L9.37888 150.833H8.30088L8.50988 149.865H9.56588L9.87388 148.435H8.80688L9.02688 147.467H10.0719L10.4129 145.806H11.4909L11.1499 147.467H12.2719L12.6129 145.806H13.6909L13.3499 147.467H14.4169L14.2079 148.435ZM11.7659 149.865L12.0739 148.435H10.9519L10.6439 149.865H11.7659ZM15.5718 150.25H16.6498C16.6498 150.763 16.8148 151.192 17.1448 151.537C17.4748 151.874 17.9001 152.043 18.4208 152.043C18.9414 152.043 19.3631 151.882 19.6858 151.559C20.0084 151.236 20.1698 150.811 20.1698 150.283C20.1698 149.755 20.0048 149.333 19.6748 149.018C19.3448 148.695 18.9084 148.534 18.3658 148.534C17.9551 148.534 17.5884 148.659 17.2658 148.908L16.4738 148.325L17.2768 145.3H20.7858V146.345H18.0688L17.7388 147.621C17.9368 147.533 18.1421 147.489 18.3548 147.489C19.1761 147.489 19.8618 147.753 20.4118 148.281C20.9691 148.809 21.2478 149.476 21.2478 150.283C21.2478 151.097 20.9801 151.768 20.4448 152.296C19.9094 152.824 19.2311 153.088 18.4098 153.088C17.5958 153.088 16.9174 152.82 16.3748 152.285C15.8394 151.75 15.5718 151.071 15.5718 150.25ZM22.4022 149.15C22.3802 148.065 22.7616 147.133 23.5462 146.356C24.3382 145.571 25.2769 145.19 26.3622 145.212C27.1909 145.212 27.9279 145.436 28.5732 145.883C29.2332 146.345 29.6989 146.932 29.9702 147.643H28.8042C28.5622 147.218 28.2249 146.884 27.7922 146.642C27.3596 146.393 26.8829 146.268 26.3622 146.268C25.5629 146.268 24.8809 146.55 24.3162 147.115C23.7589 147.672 23.4802 148.351 23.4802 149.15C23.4802 149.949 23.7589 150.631 24.3162 151.196C24.8809 151.753 25.5629 152.032 26.3622 152.032C26.8682 152.032 27.3302 151.915 27.7482 151.68C28.1736 151.445 28.5182 151.123 28.7822 150.712H29.9482C29.6622 151.423 29.1966 151.999 28.5512 152.439C27.8986 152.872 27.1689 153.088 26.3622 153.088C25.2769 153.11 24.3382 152.732 23.5462 151.955C22.7616 151.17 22.3802 150.235 22.4022 149.15ZM31.1233 149.15C31.1013 148.065 31.4827 147.133 32.2673 146.356C33.0593 145.571 33.998 145.19 35.0833 145.212C35.912 145.212 36.649 145.436 37.2943 145.883C37.9543 146.345 38.42 146.932 38.6913 147.643H37.5253C37.2833 147.218 36.946 146.884 36.5133 146.642C36.0807 146.393 35.604 146.268 35.0833 146.268C34.284 146.268 33.602 146.55 33.0373 147.115C32.48 147.672 32.2013 148.351 32.2013 149.15C32.2013 149.949 32.48 150.631 33.0373 151.196C33.602 151.753 34.284 152.032 35.0833 152.032C35.5893 152.032 36.0513 151.915 36.4693 151.68C36.8947 151.445 37.2393 151.123 37.5033 150.712H38.6693C38.3833 151.423 37.9177 151.999 37.2723 152.439C36.6197 152.872 35.89 153.088 35.0833 153.088C33.998 153.11 33.0593 152.732 32.2673 151.955C31.4827 151.17 31.1013 150.235 31.1233 149.15ZM39.8444 153V152.703C39.8444 152.197 39.9398 151.746 40.1304 151.35C40.3211 150.961 40.5521 150.635 40.8234 150.371C41.1021 150.107 41.4541 149.81 41.8794 149.48C42.2021 149.238 42.4661 149.022 42.6714 148.831C43.1188 148.42 43.3424 147.977 43.3424 147.5C43.3424 147.163 43.2251 146.869 42.9904 146.62C42.7631 146.378 42.4771 146.257 42.1324 146.257C41.8098 146.257 41.5274 146.382 41.2854 146.631C41.0434 146.888 40.9224 147.177 40.9224 147.5H39.8444C39.8444 146.869 40.0681 146.33 40.5154 145.883C40.9701 145.436 41.5091 145.212 42.1324 145.212C42.7558 145.212 43.2911 145.439 43.7384 145.894C44.1931 146.349 44.4204 146.884 44.4204 147.5C44.4204 147.867 44.3398 148.197 44.1784 148.49C44.0318 148.761 43.8521 149.003 43.6394 149.216C43.4268 149.429 43.1114 149.696 42.6934 150.019C42.3854 150.261 42.1288 150.474 41.9234 150.657C41.4688 151.06 41.1864 151.493 41.0764 151.955H44.4534V153H39.8444ZM50.1877 146.345H46.7337V148.446H49.7697V149.491H46.7337V151.955H50.1877V153H45.6557V145.3H50.1877V146.345ZM56.3624 150.778C56.3624 151.423 56.1498 151.955 55.7244 152.373C55.3064 152.791 54.7821 153 54.1514 153H51.3904V145.3H53.6344C54.3018 145.3 54.8224 145.461 55.1964 145.784C55.5778 146.107 55.7684 146.554 55.7684 147.126C55.7684 147.881 55.4971 148.439 54.9544 148.798C55.8931 149.165 56.3624 149.825 56.3624 150.778ZM53.6344 146.29H52.4684V148.336H53.7444C53.9938 148.336 54.2138 148.226 54.4044 148.006C54.5951 147.779 54.6904 147.537 54.6904 147.28C54.6904 146.972 54.6024 146.73 54.4264 146.554C54.2504 146.378 53.9864 146.29 53.6344 146.29ZM55.2844 150.613C55.2844 150.276 55.1708 149.99 54.9434 149.755C54.7161 149.52 54.4191 149.403 54.0524 149.403H52.4684V152.01H54.1404C54.4704 152.01 54.7418 151.878 54.9544 151.614C55.1744 151.343 55.2844 151.009 55.2844 150.613Z" fill="#004573"/>
<path d="M91.4571 148.435H90.4011L90.0931 149.865H91.1491L90.9511 150.833H89.9061L89.5541 152.494H88.4761L88.8281 150.833H87.7061L87.3541 152.494H86.2761L86.6281 150.833H85.5501L85.7591 149.865H86.8151L87.1231 148.435H86.0561L86.2761 147.467H87.3211L87.6621 145.806H88.7401L88.3991 147.467H89.5211L89.8621 145.806H90.9401L90.5991 147.467H91.6661L91.4571 148.435ZM89.0151 149.865L89.3231 148.435H88.2011L87.8931 149.865H89.0151ZM92.821 150.701C92.821 150.283 92.92 149.902 93.118 149.557C93.3234 149.205 93.602 148.926 93.954 148.721C93.426 148.332 93.162 147.819 93.162 147.181C93.162 146.631 93.3674 146.165 93.778 145.784C94.196 145.403 94.724 145.212 95.362 145.212C96 145.212 96.5244 145.403 96.935 145.784C97.3457 146.165 97.551 146.631 97.551 147.181C97.551 147.819 97.2907 148.329 96.77 148.71C97.122 148.915 97.397 149.194 97.595 149.546C97.8004 149.898 97.903 150.283 97.903 150.701C97.903 151.368 97.6574 151.933 97.166 152.395C96.682 152.857 96.0807 153.088 95.362 153.088C94.6434 153.088 94.0384 152.857 93.547 152.395C93.063 151.933 92.821 151.368 92.821 150.701ZM96.44 147.214C96.44 146.928 96.341 146.697 96.143 146.521C95.9524 146.345 95.692 146.257 95.362 146.257C95.032 146.257 94.768 146.345 94.57 146.521C94.3794 146.697 94.284 146.928 94.284 147.214C94.284 147.507 94.3794 147.742 94.57 147.918C94.768 148.094 95.032 148.182 95.362 148.182C95.692 148.182 95.9524 148.094 96.143 147.918C96.341 147.742 96.44 147.507 96.44 147.214ZM96.781 150.668C96.781 150.265 96.6454 149.935 96.374 149.678C96.11 149.414 95.769 149.282 95.351 149.282C94.9404 149.282 94.5994 149.414 94.328 149.678C94.064 149.935 93.932 150.265 93.932 150.668C93.932 151.064 94.064 151.394 94.328 151.658C94.5994 151.915 94.9404 152.043 95.351 152.043C95.769 152.043 96.11 151.915 96.374 151.658C96.6454 151.394 96.781 151.064 96.781 150.668ZM99.05 150.25H100.128C100.128 150.763 100.293 151.192 100.623 151.537C100.953 151.874 101.378 152.043 101.899 152.043C102.42 152.043 102.841 151.882 103.164 151.559C103.487 151.236 103.648 150.811 103.648 150.283C103.648 149.755 103.483 149.333 103.153 149.018C102.823 148.695 102.387 148.534 101.844 148.534C101.433 148.534 101.067 148.659 100.744 148.908L99.952 148.325L100.755 145.3H104.264V146.345H101.547L101.217 147.621C101.415 147.533 101.62 147.489 101.833 147.489C102.654 147.489 103.34 147.753 103.89 148.281C104.447 148.809 104.726 149.476 104.726 150.283C104.726 151.097 104.458 151.768 103.923 152.296C103.388 152.824 102.709 153.088 101.888 153.088C101.074 153.088 100.396 152.82 99.853 152.285C99.3176 151.75 99.05 151.071 99.05 150.25ZM112.15 149.15C112.172 150.228 111.787 151.145 110.995 151.9C110.211 152.648 109.276 153.015 108.19 153H105.935V145.3H108.19C109.276 145.285 110.211 145.656 110.995 146.411C111.787 147.159 112.172 148.072 112.15 149.15ZM110.236 151.174C110.794 150.631 111.072 149.957 111.072 149.15C111.072 148.343 110.794 147.672 110.236 147.137C109.686 146.594 109.004 146.323 108.19 146.323H107.013V151.977H108.19C109.004 151.977 109.686 151.709 110.236 151.174ZM114.545 145.3H115.623V153H114.545V146.807C114.229 147.064 113.767 147.218 113.159 147.269V146.235C113.459 146.198 113.753 146.103 114.039 145.949C114.347 145.78 114.515 145.564 114.545 145.3ZM121.561 146.345H118.107V148.446H121.143V149.491H118.107V153H117.029V145.3H121.561V146.345ZM127.758 146.312C128.3 147.045 128.572 147.991 128.572 149.15C128.572 150.309 128.3 151.258 127.758 151.999C127.222 152.732 126.518 153.099 125.646 153.099C124.766 153.099 124.054 152.732 123.512 151.999C122.976 151.258 122.709 150.309 122.709 149.15C122.709 147.991 122.976 147.045 123.512 146.312C124.054 145.571 124.766 145.201 125.646 145.201C126.518 145.201 127.222 145.571 127.758 146.312ZM124.304 147.049C123.959 147.584 123.787 148.285 123.787 149.15C123.787 150.015 123.959 150.716 124.304 151.251C124.648 151.786 125.096 152.054 125.646 152.054C126.188 152.054 126.632 151.786 126.977 151.251C127.321 150.716 127.494 150.015 127.494 149.15C127.494 148.285 127.321 147.584 126.977 147.049C126.632 146.514 126.188 146.246 125.646 146.246C125.096 146.246 124.648 146.514 124.304 147.049Z" fill="#004573"/>
<path d="M168.706 148.435H167.65L167.342 149.865H168.398L168.2 150.833H167.155L166.803 152.494H165.725L166.077 150.833H164.955L164.603 152.494H163.525L163.877 150.833H162.799L163.008 149.865H164.064L164.372 148.435H163.305L163.525 147.467H164.57L164.911 145.806H165.989L165.648 147.467H166.77L167.111 145.806H168.189L167.848 147.467H168.915L168.706 148.435ZM166.264 149.865L166.572 148.435H165.45L165.142 149.865H166.264ZM175.702 153L174.987 151.13H171.621L170.906 153H169.795L172.765 145.3H173.843L176.813 153H175.702ZM171.984 150.129H174.624L173.304 146.741L171.984 150.129ZM183.955 149.15C183.977 150.228 183.592 151.145 182.8 151.9C182.015 152.648 181.08 153.015 179.995 153H177.74V145.3H179.995C181.08 145.285 182.015 145.656 182.8 146.411C183.592 147.159 183.977 148.072 183.955 149.15ZM182.041 151.174C182.598 150.631 182.877 149.957 182.877 149.15C182.877 148.343 182.598 147.672 182.041 147.137C181.491 146.594 180.809 146.323 179.995 146.323H178.818V151.977H179.995C180.809 151.977 181.491 151.709 182.041 151.174ZM189.693 146.345H186.239V148.446H189.275V149.491H186.239V151.955H189.693V153H185.161V145.3H189.693V146.345ZM192.084 145.3H193.162V153H192.084V146.807C191.769 147.064 191.307 147.218 190.698 147.269V146.235C190.999 146.198 191.292 146.103 191.578 145.949C191.886 145.78 192.055 145.564 192.084 145.3ZM199.1 146.345H195.646V148.446H198.682V149.491H195.646V153H194.568V145.3H199.1V146.345ZM200.248 150.25H201.326C201.326 150.763 201.491 151.192 201.821 151.537C202.151 151.874 202.576 152.043 203.097 152.043C203.618 152.043 204.039 151.882 204.362 151.559C204.685 151.236 204.846 150.811 204.846 150.283C204.846 149.755 204.681 149.333 204.351 149.018C204.021 148.695 203.585 148.534 203.042 148.534C202.631 148.534 202.265 148.659 201.942 148.908L201.15 148.325L201.953 145.3H205.462V146.345H202.745L202.415 147.621C202.613 147.533 202.818 147.489 203.031 147.489C203.852 147.489 204.538 147.753 205.088 148.281C205.645 148.809 205.924 149.476 205.924 150.283C205.924 151.097 205.656 151.768 205.121 152.296C204.586 152.824 203.907 153.088 203.086 153.088C202.272 153.088 201.594 152.82 201.051 152.285C200.516 151.75 200.248 151.071 200.248 150.25Z" fill="#004573"/>
<path d="M245.955 148.435H244.899L244.591 149.865H245.647L245.449 150.833H244.404L244.052 152.494H242.974L243.326 150.833H242.204L241.852 152.494H240.774L241.126 150.833H240.048L240.257 149.865H241.313L241.621 148.435H240.554L240.774 147.467H241.819L242.16 145.806H243.238L242.897 147.467H244.019L244.36 145.806H245.438L245.097 147.467H246.164L245.955 148.435ZM243.513 149.865L243.821 148.435H242.699L242.391 149.865H243.513ZM253.589 149.15C253.611 150.228 253.226 151.145 252.434 151.9C251.65 152.648 250.715 153.015 249.629 153H247.374V145.3H249.629C250.715 145.285 251.65 145.656 252.434 146.411C253.226 147.159 253.611 148.072 253.589 149.15ZM251.675 151.174C252.233 150.631 252.511 149.957 252.511 149.15C252.511 148.343 252.233 147.672 251.675 147.137C251.125 146.594 250.443 146.323 249.629 146.323H248.452V151.977H249.629C250.443 151.977 251.125 151.709 251.675 151.174ZM254.741 150.25C254.741 149.517 254.946 148.791 255.357 148.072C255.782 147.346 256.314 146.734 256.952 146.235C257.597 145.736 258.257 145.425 258.932 145.3V146.312C258.528 146.422 258.129 146.605 257.733 146.862C257.344 147.119 257.029 147.408 256.787 147.731C257.065 147.555 257.381 147.467 257.733 147.467C258.481 147.452 259.119 147.731 259.647 148.303C260.175 148.868 260.431 149.517 260.417 150.25C260.431 151.013 260.153 151.68 259.581 152.252C259.009 152.824 258.341 153.103 257.579 153.088C256.809 153.103 256.138 152.831 255.566 152.274C255.001 151.709 254.726 151.035 254.741 150.25ZM258.822 151.526C259.166 151.174 259.339 150.749 259.339 150.25C259.339 149.751 259.17 149.33 258.833 148.985C258.495 148.633 258.081 148.457 257.59 148.457C257.098 148.457 256.68 148.633 256.336 148.985C255.991 149.33 255.819 149.751 255.819 150.25C255.819 150.749 255.991 151.174 256.336 151.526C256.68 151.871 257.098 152.043 257.59 152.043C258.074 152.043 258.484 151.871 258.822 151.526ZM266.158 146.345H262.704V148.446H265.74V149.491H262.704V153H261.626V145.3H266.158V146.345ZM272.355 146.312C272.898 147.045 273.169 147.991 273.169 149.15C273.169 150.309 272.898 151.258 272.355 151.999C271.82 152.732 271.116 153.099 270.243 153.099C269.363 153.099 268.652 152.732 268.109 151.999C267.574 151.258 267.306 150.309 267.306 149.15C267.306 147.991 267.574 147.045 268.109 146.312C268.652 145.571 269.363 145.201 270.243 145.201C271.116 145.201 271.82 145.571 272.355 146.312ZM268.901 147.049C268.556 147.584 268.384 148.285 268.384 149.15C268.384 150.015 268.556 150.716 268.901 151.251C269.246 151.786 269.693 152.054 270.243 152.054C270.786 152.054 271.229 151.786 271.574 151.251C271.919 150.716 272.091 150.015 272.091 149.15C272.091 148.285 271.919 147.584 271.574 147.049C271.229 146.514 270.786 146.246 270.243 146.246C269.693 146.246 269.246 146.514 268.901 147.049ZM278.906 146.345H275.452V148.446H278.488V149.491H275.452V153H274.374V145.3H278.906V146.345ZM284.59 153L283.875 151.13H280.509L279.794 153H278.683L281.653 145.3H282.731L285.701 153H284.59ZM280.872 150.129H283.512L282.192 146.741L280.872 150.129Z" fill="#004573"/>
</g>
</svg>
