<svg width="310" height="184" viewBox="0 0 310 184" fill="none" xmlns="http://www.w3.org/2000/svg">
<mask id="mask0_6_433" style="mask-type:alpha" maskUnits="userSpaceOnUse" x="0" y="0" width="310" height="184">
<rect width="310" height="184" rx="16" fill="#141F33"/>
</mask>
<g mask="url(#mask0_6_433)">
<path d="M0 16C0 7.16344 7.16344 0 16 0H294C302.837 0 310 7.16344 310 16V184H0V16Z" fill="#99CCE6"/>
<rect x="155" y="136" width="77" height="48" fill="#D6EBF5"/>
<rect x="232" y="136" width="78" height="48" fill="#EBF5FA"/>
<rect y="136" width="77" height="48" fill="#ADD6EB"/>
<rect x="77" y="136" width="78" height="48" fill="#C2E0F0"/>
<path d="M18.304 35.29H23.596V37H16.54V24.4H18.304V35.29ZM24.9908 25.678C24.9908 25.366 25.0928 25.108 25.2968 24.904C25.5128 24.7 25.7708 24.598 26.0708 24.598C26.3708 24.598 26.6228 24.706 26.8268 24.922C27.0308 25.126 27.1328 25.378 27.1328 25.678C27.1328 25.978 27.0308 26.236 26.8268 26.452C26.6228 26.656 26.3708 26.758 26.0708 26.758C25.7708 26.758 25.5128 26.656 25.2968 26.452C25.0928 26.236 24.9908 25.978 24.9908 25.678ZM25.1888 37V28H26.9528V37H25.1888ZM28.9136 37.81H31.0376C31.6016 38.53 32.3096 38.89 33.1616 38.89C33.9536 38.89 34.6256 38.65 35.1776 38.17C35.7296 37.702 36.0056 37.102 36.0056 36.37V35.956C35.2376 36.748 34.2896 37.144 33.1616 37.144C31.9136 37.168 30.8216 36.712 29.8856 35.776C28.9496 34.84 28.4936 33.748 28.5176 32.5C28.4936 31.252 28.9496 30.16 29.8856 29.224C30.8216 28.288 31.9136 27.832 33.1616 27.856C34.4096 27.832 35.5016 28.288 36.4376 29.224C37.3736 30.16 37.8296 31.252 37.8056 32.5V35.956C37.8296 37.204 37.3736 38.296 36.4376 39.232C35.5016 40.168 34.4096 40.624 33.1616 40.6C32.2256 40.6 31.3736 40.342 30.6056 39.826C29.8376 39.322 29.2736 38.65 28.9136 37.81ZM36.0416 32.5C36.0416 31.672 35.7656 30.976 35.2136 30.412C34.6736 29.848 33.9956 29.566 33.1796 29.566C32.3636 29.566 31.6736 29.854 31.1096 30.43C30.5576 30.994 30.2816 31.684 30.2816 32.5C30.2816 33.316 30.5636 34.012 31.1276 34.588C31.6916 35.152 32.3756 35.434 33.1796 35.434C33.9836 35.434 34.6616 35.152 35.2136 34.588C35.7656 34.012 36.0416 33.316 36.0416 32.5ZM47.2108 32.266V37H45.4468V32.266C45.4468 30.466 44.7148 29.566 43.2508 29.566C41.7868 29.566 41.0548 30.454 41.0548 32.23V37H39.2908V24.4H41.0548V28.81C41.5588 28.174 42.2908 27.856 43.2508 27.856C44.4748 27.856 45.4408 28.234 46.1488 28.99C46.8568 29.734 47.2108 30.826 47.2108 32.266ZM52.9339 29.71H50.9899V32.734C50.9899 34.354 51.6379 35.224 52.9339 35.344V37.054C51.7819 37.006 50.8759 36.622 50.2159 35.902C49.5679 35.17 49.2379 34.12 49.2259 32.752V29.71H47.8939V28H49.2259V24.778H50.9899V28H52.9339V29.71ZM67.3475 33.364C67.3475 34.42 66.9995 35.29 66.3035 35.974C65.6195 36.658 64.7615 37 63.7295 37H59.2115V24.4H62.8835C63.9755 24.4 64.8275 24.664 65.4395 25.192C66.0635 25.72 66.3755 26.452 66.3755 27.388C66.3755 28.624 65.9315 29.536 65.0435 30.124C66.5795 30.724 67.3475 31.804 67.3475 33.364ZM62.8835 26.02H60.9755V29.368H63.0635C63.4715 29.368 63.8315 29.188 64.1435 28.828C64.4555 28.456 64.6115 28.06 64.6115 27.64C64.6115 27.136 64.4675 26.74 64.1795 26.452C63.8915 26.164 63.4595 26.02 62.8835 26.02ZM65.5835 33.094C65.5835 32.542 65.3975 32.074 65.0255 31.69C64.6535 31.306 64.1675 31.114 63.5675 31.114H60.9755V35.38H63.7115C64.2515 35.38 64.6955 35.164 65.0435 34.732C65.4035 34.288 65.5835 33.742 65.5835 33.094ZM70.4985 37H68.7345V24.4H70.4985V37ZM78.314 28H80.078V32.734C80.078 34.174 79.724 35.272 79.016 36.028C78.308 36.772 77.342 37.144 76.118 37.144C74.894 37.144 73.928 36.772 73.22 36.028C72.512 35.272 72.158 34.174 72.158 32.734V28H73.922V32.734C73.922 34.534 74.654 35.434 76.118 35.434C77.582 35.434 78.314 34.534 78.314 32.734V28ZM86.04 27.856C87.264 27.856 88.332 28.276 89.244 29.116C90.168 29.944 90.648 31.018 90.684 32.338C90.684 32.638 90.666 32.908 90.63 33.148H83.358C83.43 33.82 83.712 34.372 84.204 34.804C84.708 35.224 85.32 35.434 86.04 35.434C86.916 35.434 87.636 35.134 88.2 34.534L90.306 34.552C89.91 35.344 89.334 35.974 88.578 36.442C87.822 36.91 86.994 37.144 86.094 37.144C84.834 37.168 83.742 36.718 82.818 35.794C81.894 34.87 81.444 33.778 81.468 32.518C81.444 31.258 81.888 30.16 82.8 29.224C83.712 28.288 84.792 27.832 86.04 27.856ZM83.358 31.708H88.794C88.626 31.084 88.29 30.574 87.786 30.178C87.294 29.77 86.73 29.566 86.094 29.566C85.422 29.566 84.84 29.764 84.348 30.16C83.856 30.544 83.526 31.06 83.358 31.708Z" fill="white"/>
<path d="M36.16 101.7H32.092L30.94 107.1H35.008L34.576 109.152H30.544L29.248 115.344H26.944L28.24 109.152H23.344L22.048 115.344H19.744L21.04 109.152H16.9L17.368 107.1H21.436L22.588 101.7H18.484L18.988 99.648H23.02L24.28 93.456H26.584L25.324 99.648H30.22L31.48 93.456H33.784L32.524 99.648H36.628L36.16 101.7ZM28.636 107.1L29.788 101.7H24.892L23.74 107.1H28.636ZM46.3396 117.288L51.3076 109.548C50.2516 110.1 49.1836 110.376 48.1036 110.376C45.6076 110.424 43.4236 109.512 41.5516 107.64C39.6796 105.768 38.7676 103.584 38.8156 101.088C38.7676 98.592 39.6796 96.408 41.5516 94.536C43.4236 92.664 45.6076 91.752 48.1036 91.8C50.5756 91.752 52.7476 92.664 54.6196 94.536C56.4916 96.408 57.4156 98.592 57.3916 101.088C57.3916 103.032 56.8156 104.832 55.6636 106.488L48.7876 117.288H46.3396ZM55.0876 101.088C55.0876 99.144 54.3916 97.476 52.9996 96.084C51.6316 94.692 49.9876 93.996 48.0676 93.996C46.1716 93.996 44.5396 94.692 43.1716 96.084C41.8036 97.476 41.1196 99.144 41.1196 101.088C41.1196 103.08 41.7916 104.76 43.1356 106.128C44.4796 107.496 46.1236 108.18 48.0676 108.18C50.0116 108.18 51.6676 107.496 53.0356 106.128C54.4036 104.736 55.0876 103.056 55.0876 101.088ZM67.1302 117.288L72.0982 109.548C71.0422 110.1 69.9742 110.376 68.8943 110.376C66.3982 110.424 64.2142 109.512 62.3422 107.64C60.4702 105.768 59.5582 103.584 59.6062 101.088C59.5582 98.592 60.4702 96.408 62.3422 94.536C64.2142 92.664 66.3982 91.752 68.8943 91.8C71.3662 91.752 73.5382 92.664 75.4102 94.536C77.2823 96.408 78.2063 98.592 78.1822 101.088C78.1822 103.032 77.6062 104.832 76.4543 106.488L69.5782 117.288H67.1302ZM75.8783 101.088C75.8783 99.144 75.1823 97.476 73.7903 96.084C72.4223 94.692 70.7782 93.996 68.8582 93.996C66.9622 93.996 65.3302 94.692 63.9622 96.084C62.5942 97.476 61.9102 99.144 61.9102 101.088C61.9102 103.08 62.5822 104.76 63.9262 106.128C65.2702 107.496 66.9142 108.18 68.8582 108.18C70.8022 108.18 72.4582 107.496 73.8262 106.128C75.1943 104.736 75.8783 103.056 75.8783 101.088ZM80.3969 104.4C80.3249 100.848 81.5729 97.8 84.1409 95.256C86.7329 92.688 89.8049 91.44 93.3569 91.512C95.7569 91.512 97.9529 92.112 99.9449 93.312C101.913 94.512 103.425 96.096 104.481 98.064H101.853C100.917 96.72 99.7049 95.676 98.2169 94.932C96.7289 94.164 95.1089 93.78 93.3569 93.78C90.4529 93.732 87.9329 94.764 85.7969 96.876C83.6849 98.964 82.6529 101.472 82.7009 104.4C82.6529 107.328 83.6849 109.848 85.7969 111.96C87.9329 114.048 90.4529 115.068 93.3569 115.02C96.8609 115.02 99.6809 113.628 101.817 110.844H104.445C103.413 112.74 101.889 114.3 99.8729 115.524C97.9049 116.7 95.7329 117.288 93.3569 117.288C89.8049 117.36 86.7329 116.124 84.1409 113.58C81.5729 111.012 80.3249 107.952 80.3969 104.4ZM106.672 104.4C106.6 100.848 107.848 97.8 110.416 95.256C113.008 92.688 116.08 91.44 119.632 91.512C122.032 91.512 124.228 92.112 126.22 93.312C128.188 94.512 129.7 96.096 130.756 98.064H128.128C127.192 96.72 125.98 95.676 124.492 94.932C123.004 94.164 121.384 93.78 119.632 93.78C116.728 93.732 114.208 94.764 112.072 96.876C109.96 98.964 108.928 101.472 108.976 104.4C108.928 107.328 109.96 109.848 112.072 111.96C114.208 114.048 116.728 115.068 119.632 115.02C123.136 115.02 125.956 113.628 128.092 110.844H130.72C129.688 112.74 128.164 114.3 126.148 115.524C124.18 116.7 122.008 117.288 119.632 117.288C116.08 117.36 113.008 116.124 110.416 113.58C107.848 111.012 106.6 107.952 106.672 104.4ZM147.959 93.996H135.431V102.708H146.591V104.904H135.431V114.804H147.959V117H133.127V91.8H147.959V93.996ZM150.152 108C150.152 105.744 150.812 103.452 152.132 101.124C153.476 98.772 155.144 96.756 157.136 95.076C159.2 93.348 161.192 92.256 163.112 91.8V93.924C161.576 94.476 160.088 95.34 158.648 96.516C157.232 97.692 156.032 99 155.048 100.44C156.32 99.36 157.868 98.82 159.692 98.82C162.164 98.772 164.3 99.684 166.1 101.556C167.9 103.404 168.776 105.552 168.728 108C168.776 110.496 167.864 112.68 165.992 114.552C164.12 116.424 161.936 117.336 159.44 117.288C156.92 117.336 154.724 116.448 152.852 114.624C151.004 112.776 150.104 110.568 150.152 108ZM166.424 108C166.424 106.008 165.752 104.328 164.408 102.96C163.064 101.592 161.42 100.908 159.476 100.908C157.532 100.908 155.876 101.592 154.508 102.96C153.14 104.328 152.456 105.996 152.456 107.964C152.456 109.932 153.14 111.612 154.508 113.004C155.876 114.396 157.532 115.092 159.476 115.092C161.372 115.092 163.004 114.396 164.372 113.004C165.74 111.612 166.424 109.944 166.424 108Z" fill="white"/>
<path d="M14.182 147.435H13.126L12.818 148.865H13.874L13.676 149.833H12.631L12.279 151.494H11.201L11.553 149.833H10.431L10.079 151.494H9.001L9.353 149.833H8.275L8.484 148.865H9.54L9.848 147.435H8.781L9.001 146.467H10.046L10.387 144.806H11.465L11.124 146.467H12.246L12.587 144.806H13.665L13.324 146.467H14.391L14.182 147.435ZM11.74 148.865L12.048 147.435H10.926L10.618 148.865H11.74ZM21.1779 152L20.4629 150.13H17.0969L16.3819 152H15.2709L18.2409 144.3H19.3189L22.2889 152H21.1779ZM17.4599 149.129H20.0999L18.7799 145.741L17.4599 149.129ZM29.4305 148.15C29.4525 149.228 29.0675 150.145 28.2755 150.9C27.4909 151.648 26.5559 152.015 25.4705 152H23.2155V144.3H25.4705C26.5559 144.285 27.4909 144.656 28.2755 145.411C29.0675 146.159 29.4525 147.072 29.4305 148.15ZM27.5165 150.174C28.0739 149.631 28.3525 148.957 28.3525 148.15C28.3525 147.343 28.0739 146.672 27.5165 146.137C26.9665 145.594 26.2845 145.323 25.4705 145.323H24.2935V150.977H25.4705C26.2845 150.977 26.9665 150.709 27.5165 150.174ZM36.8518 148.15C36.8738 149.228 36.4888 150.145 35.6968 150.9C34.9122 151.648 33.9772 152.015 32.8918 152H30.6368V144.3H32.8918C33.9772 144.285 34.9122 144.656 35.6968 145.411C36.4888 146.159 36.8738 147.072 36.8518 148.15ZM34.9378 150.174C35.4952 149.631 35.7738 148.957 35.7738 148.15C35.7738 147.343 35.4952 146.672 34.9378 146.137C34.3878 145.594 33.7058 145.323 32.8918 145.323H31.7148V150.977H32.8918C33.7058 150.977 34.3878 150.709 34.9378 150.174ZM38.0031 149.25C38.0031 148.517 38.2085 147.791 38.6191 147.072C39.0445 146.346 39.5761 145.734 40.2141 145.235C40.8595 144.736 41.5195 144.425 42.1941 144.3V145.312C41.7908 145.422 41.3911 145.605 40.9951 145.862C40.6065 146.119 40.2911 146.408 40.0491 146.731C40.3278 146.555 40.6431 146.467 40.9951 146.467C41.7431 146.452 42.3811 146.731 42.9091 147.303C43.4371 147.868 43.6938 148.517 43.6791 149.25C43.6938 150.013 43.4151 150.68 42.8431 151.252C42.2711 151.824 41.6038 152.103 40.8411 152.088C40.0711 152.103 39.4001 151.831 38.8281 151.274C38.2635 150.709 37.9885 150.035 38.0031 149.25ZM42.0841 150.526C42.4288 150.174 42.6011 149.749 42.6011 149.25C42.6011 148.751 42.4325 148.33 42.0951 147.985C41.7578 147.633 41.3435 147.457 40.8521 147.457C40.3608 147.457 39.9428 147.633 39.5981 147.985C39.2535 148.33 39.0811 148.751 39.0811 149.25C39.0811 149.749 39.2535 150.174 39.5981 150.526C39.9428 150.871 40.3608 151.043 40.8521 151.043C41.3361 151.043 41.7468 150.871 42.0841 150.526ZM49.4206 145.345H45.9666V147.446H49.0026V148.491H45.9666V150.955H49.4206V152H44.8886V144.3H49.4206V145.345ZM55.5954 149.778C55.5954 150.423 55.3827 150.955 54.9574 151.373C54.5394 151.791 54.015 152 53.3844 152H50.6234V144.3H52.8674C53.5347 144.3 54.0554 144.461 54.4294 144.784C54.8107 145.107 55.0014 145.554 55.0014 146.126C55.0014 146.881 54.73 147.439 54.1874 147.798C55.126 148.165 55.5954 148.825 55.5954 149.778ZM52.8674 145.29H51.7014V147.336H52.9774C53.2267 147.336 53.4467 147.226 53.6374 147.006C53.828 146.779 53.9234 146.537 53.9234 146.28C53.9234 145.972 53.8354 145.73 53.6594 145.554C53.4834 145.378 53.2194 145.29 52.8674 145.29ZM54.5174 149.613C54.5174 149.276 54.4037 148.99 54.1764 148.755C53.949 148.52 53.652 148.403 53.2854 148.403H51.7014V151.01H53.3734C53.7034 151.01 53.9747 150.878 54.1874 150.614C54.4074 150.343 54.5174 150.009 54.5174 149.613Z" fill="#004573"/>
<path d="M91.182 147.435H90.126L89.818 148.865H90.874L90.676 149.833H89.631L89.279 151.494H88.201L88.553 149.833H87.431L87.079 151.494H86.001L86.353 149.833H85.275L85.484 148.865H86.54L86.848 147.435H85.781L86.001 146.467H87.046L87.387 144.806H88.465L88.124 146.467H89.246L89.587 144.806H90.665L90.324 146.467H91.391L91.182 147.435ZM88.74 148.865L89.048 147.435H87.926L87.618 148.865H88.74ZM92.5459 148.15C92.5239 147.065 92.9052 146.133 93.6899 145.356C94.4819 144.571 95.4206 144.19 96.5059 144.212C97.3346 144.212 98.0716 144.436 98.7169 144.883C99.3769 145.345 99.8426 145.932 100.114 146.643H98.9479C98.7059 146.218 98.3686 145.884 97.9359 145.642C97.5032 145.393 97.0266 145.268 96.5059 145.268C95.7066 145.268 95.0246 145.55 94.4599 146.115C93.9026 146.672 93.6239 147.351 93.6239 148.15C93.6239 148.949 93.9026 149.631 94.4599 150.196C95.0246 150.753 95.7066 151.032 96.5059 151.032C97.0119 151.032 97.4739 150.915 97.8919 150.68C98.3172 150.445 98.6619 150.123 98.9259 149.712H100.092C99.8059 150.423 99.3402 150.999 98.6949 151.439C98.0422 151.872 97.3126 152.088 96.5059 152.088C95.4206 152.11 94.4819 151.732 93.6899 150.955C92.9052 150.17 92.5239 149.235 92.5459 148.15ZM101.267 152V151.703C101.267 151.197 101.362 150.746 101.553 150.35C101.744 149.961 101.975 149.635 102.246 149.371C102.525 149.107 102.877 148.81 103.302 148.48C103.625 148.238 103.889 148.022 104.094 147.831C104.541 147.42 104.765 146.977 104.765 146.5C104.765 146.163 104.648 145.869 104.413 145.62C104.186 145.378 103.9 145.257 103.555 145.257C103.232 145.257 102.95 145.382 102.708 145.631C102.466 145.888 102.345 146.177 102.345 146.5H101.267C101.267 145.869 101.491 145.33 101.938 144.883C102.393 144.436 102.932 144.212 103.555 144.212C104.178 144.212 104.714 144.439 105.161 144.894C105.616 145.349 105.843 145.884 105.843 146.5C105.843 146.867 105.762 147.197 105.601 147.49C105.454 147.761 105.275 148.003 105.062 148.216C104.849 148.429 104.534 148.696 104.116 149.019C103.808 149.261 103.551 149.474 103.346 149.657C102.891 150.06 102.609 150.493 102.499 150.955H105.876V152H101.267ZM111.61 145.345H108.156V147.446H111.192V148.491H108.156V150.955H111.61V152H107.078V144.3H111.61V145.345ZM117.807 145.312C118.35 146.045 118.621 146.991 118.621 148.15C118.621 149.309 118.35 150.258 117.807 150.999C117.272 151.732 116.568 152.099 115.695 152.099C114.815 152.099 114.104 151.732 113.561 150.999C113.026 150.258 112.758 149.309 112.758 148.15C112.758 146.991 113.026 146.045 113.561 145.312C114.104 144.571 114.815 144.201 115.695 144.201C116.568 144.201 117.272 144.571 117.807 145.312ZM114.353 146.049C114.008 146.584 113.836 147.285 113.836 148.15C113.836 149.015 114.008 149.716 114.353 150.251C114.698 150.786 115.145 151.054 115.695 151.054C116.238 151.054 116.681 150.786 117.026 150.251C117.371 149.716 117.543 149.015 117.543 148.15C117.543 147.285 117.371 146.584 117.026 146.049C116.681 145.514 116.238 145.246 115.695 145.246C115.145 145.246 114.698 145.514 114.353 146.049ZM124.358 145.345H120.904V147.446H123.94V148.491H120.904V152H119.826V144.3H124.358V145.345ZM130.555 145.312C131.098 146.045 131.369 146.991 131.369 148.15C131.369 149.309 131.098 150.258 130.555 150.999C130.02 151.732 129.316 152.099 128.443 152.099C127.563 152.099 126.852 151.732 126.309 150.999C125.774 150.258 125.506 149.309 125.506 148.15C125.506 146.991 125.774 146.045 126.309 145.312C126.852 144.571 127.563 144.201 128.443 144.201C129.316 144.201 130.02 144.571 130.555 145.312ZM127.101 146.049C126.756 146.584 126.584 147.285 126.584 148.15C126.584 149.015 126.756 149.716 127.101 150.251C127.446 150.786 127.893 151.054 128.443 151.054C128.986 151.054 129.429 150.786 129.774 150.251C130.119 149.716 130.291 149.015 130.291 148.15C130.291 147.285 130.119 146.584 129.774 146.049C129.429 145.514 128.986 145.246 128.443 145.246C127.893 145.246 127.446 145.514 127.101 146.049Z" fill="#004573"/>
<path d="M168.182 147.435H167.126L166.818 148.865H167.874L167.676 149.833H166.631L166.279 151.494H165.201L165.553 149.833H164.431L164.079 151.494H163.001L163.353 149.833H162.275L162.484 148.865H163.54L163.848 147.435H162.781L163.001 146.467H164.046L164.387 144.806H165.465L165.124 146.467H166.246L166.587 144.806H167.665L167.324 146.467H168.391L168.182 147.435ZM165.74 148.865L166.048 147.435H164.926L164.618 148.865H165.74ZM175.816 148.15C175.838 149.228 175.453 150.145 174.661 150.9C173.876 151.648 172.941 152.015 171.856 152H169.601V144.3H171.856C172.941 144.285 173.876 144.656 174.661 145.411C175.453 146.159 175.838 147.072 175.816 148.15ZM173.902 150.174C174.459 149.631 174.738 148.957 174.738 148.15C174.738 147.343 174.459 146.672 173.902 146.137C173.352 145.594 172.67 145.323 171.856 145.323H170.679V150.977H171.856C172.67 150.977 173.352 150.709 173.902 150.174ZM176.967 149.25C176.967 148.517 177.173 147.791 177.583 147.072C178.009 146.346 178.54 145.734 179.178 145.235C179.824 144.736 180.484 144.425 181.158 144.3V145.312C180.755 145.422 180.355 145.605 179.959 145.862C179.571 146.119 179.255 146.408 179.013 146.731C179.292 146.555 179.607 146.467 179.959 146.467C180.707 146.452 181.345 146.731 181.873 147.303C182.401 147.868 182.658 148.517 182.643 149.25C182.658 150.013 182.379 150.68 181.807 151.252C181.235 151.824 180.568 152.103 179.805 152.088C179.035 152.103 178.364 151.831 177.792 151.274C177.228 150.709 176.953 150.035 176.967 149.25ZM181.048 150.526C181.393 150.174 181.565 149.749 181.565 149.25C181.565 148.751 181.397 148.33 181.059 147.985C180.722 147.633 180.308 147.457 179.816 147.457C179.325 147.457 178.907 147.633 178.562 147.985C178.218 148.33 178.045 148.751 178.045 149.25C178.045 149.749 178.218 150.174 178.562 150.526C178.907 150.871 179.325 151.043 179.816 151.043C180.3 151.043 180.711 150.871 181.048 150.526ZM188.385 145.345H184.931V147.446H187.967V148.491H184.931V150.955H188.385V152H183.853V144.3H188.385V145.345ZM194.559 149.778C194.559 150.423 194.347 150.955 193.921 151.373C193.503 151.791 192.979 152 192.348 152H189.587V144.3H191.831C192.499 144.3 193.019 144.461 193.393 144.784C193.775 145.107 193.965 145.554 193.965 146.126C193.965 146.881 193.694 147.439 193.151 147.798C194.09 148.165 194.559 148.825 194.559 149.778ZM191.831 145.29H190.665V147.336H191.941C192.191 147.336 192.411 147.226 192.601 147.006C192.792 146.779 192.887 146.537 192.887 146.28C192.887 145.972 192.799 145.73 192.623 145.554C192.447 145.378 192.183 145.29 191.831 145.29ZM193.481 149.613C193.481 149.276 193.368 148.99 193.14 148.755C192.913 148.52 192.616 148.403 192.249 148.403H190.665V151.01H192.337C192.667 151.01 192.939 150.878 193.151 150.614C193.371 150.343 193.481 150.009 193.481 149.613ZM200.295 145.345H196.841V147.446H199.877V148.491H196.841V152H195.763V144.3H200.295V145.345ZM201.442 149.25H202.52C202.52 149.763 202.685 150.192 203.015 150.537C203.345 150.874 203.771 151.043 204.291 151.043C204.812 151.043 205.234 150.882 205.556 150.559C205.879 150.236 206.04 149.811 206.04 149.283C206.04 148.755 205.875 148.333 205.545 148.018C205.215 147.695 204.779 147.534 204.236 147.534C203.826 147.534 203.459 147.659 203.136 147.908L202.344 147.325L203.147 144.3H206.656V145.345H203.939L203.609 146.621C203.807 146.533 204.013 146.489 204.225 146.489C205.047 146.489 205.732 146.753 206.282 147.281C206.84 147.809 207.118 148.476 207.118 149.283C207.118 150.097 206.851 150.768 206.315 151.296C205.78 151.824 205.102 152.088 204.28 152.088C203.466 152.088 202.788 151.82 202.245 151.285C201.71 150.75 201.442 150.071 201.442 149.25Z" fill="#004573"/>
<path d="M245.182 147.435H244.126L243.818 148.865H244.874L244.676 149.833H243.631L243.279 151.494H242.201L242.553 149.833H241.431L241.079 151.494H240.001L240.353 149.833H239.275L239.484 148.865H240.54L240.848 147.435H239.781L240.001 146.467H241.046L241.387 144.806H242.465L242.124 146.467H243.246L243.587 144.806H244.665L244.324 146.467H245.391L245.182 147.435ZM242.74 148.865L243.048 147.435H241.926L241.618 148.865H242.74ZM251.133 145.345H247.679V147.446H250.715V148.491H247.679V150.955H251.133V152H246.601V144.3H251.133V145.345ZM257.308 149.778C257.308 150.423 257.095 150.955 256.67 151.373C256.252 151.791 255.727 152 255.097 152H252.336V144.3H254.58C255.247 144.3 255.768 144.461 256.142 144.784C256.523 145.107 256.714 145.554 256.714 146.126C256.714 146.881 256.442 147.439 255.9 147.798C256.838 148.165 257.308 148.825 257.308 149.778ZM254.58 145.29H253.414V147.336H254.69C254.939 147.336 255.159 147.226 255.35 147.006C255.54 146.779 255.636 146.537 255.636 146.28C255.636 145.972 255.548 145.73 255.372 145.554C255.196 145.378 254.932 145.29 254.58 145.29ZM256.23 149.613C256.23 149.276 256.116 148.99 255.889 148.755C255.661 148.52 255.364 148.403 254.998 148.403H253.414V151.01H255.086C255.416 151.01 255.687 150.878 255.9 150.614C256.12 150.343 256.23 150.009 256.23 149.613ZM263.043 145.345H259.589V147.446H262.625V148.491H259.589V152H258.511V144.3H263.043V145.345ZM264.191 149.25H265.269C265.269 149.763 265.434 150.192 265.764 150.537C266.094 150.874 266.519 151.043 267.04 151.043C267.56 151.043 267.982 150.882 268.305 150.559C268.627 150.236 268.789 149.811 268.789 149.283C268.789 148.755 268.624 148.333 268.294 148.018C267.964 147.695 267.527 147.534 266.985 147.534C266.574 147.534 266.207 147.659 265.885 147.908L265.093 147.325L265.896 144.3H269.405V145.345H266.688L266.358 146.621C266.556 146.533 266.761 146.489 266.974 146.489C267.795 146.489 268.481 146.753 269.031 147.281C269.588 147.809 269.867 148.476 269.867 149.283C269.867 150.097 269.599 150.768 269.064 151.296C268.528 151.824 267.85 152.088 267.029 152.088C266.215 152.088 265.536 151.82 264.994 151.285C264.458 150.75 264.191 150.071 264.191 149.25ZM275.608 145.345H272.154V147.446H275.19V148.491H272.154V152H271.076V144.3H275.608V145.345ZM281.292 152L280.577 150.13H277.211L276.496 152H275.385L278.355 144.3H279.433L282.403 152H281.292ZM277.574 149.129H280.214L278.894 145.741L277.574 149.129Z" fill="#004573"/>
</g>
</svg>
